<svg width="161" height="49" viewBox="0 0 161 49" fill="none" xmlns="http://www.w3.org/2000/svg">
<path d="M24.6104 0.0717773C11.3435 0.0717773 0.589478 10.8258 0.589478 24.0927C0.589478 37.3596 11.3435 48.1137 24.6104 48.1137C37.8773 48.1137 48.6314 37.3596 48.6314 24.0927C48.6314 10.8258 37.8802 0.0717773 24.6104 0.0717773ZM35.6255 34.7177C35.1952 35.4234 34.2716 35.6471 33.5659 35.214C27.9264 31.7689 20.8269 30.9886 12.4651 32.8991C11.6591 33.0827 10.8559 32.5778 10.6723 31.7717C10.4887 30.9657 10.9907 30.1625 11.7996 29.9789C20.9502 27.8878 28.7985 28.7885 35.1321 32.6581C35.8378 33.0913 36.0615 34.0121 35.6284 34.7177H35.6255ZM38.5658 28.1775C38.0236 29.0581 36.8705 29.3364 35.9898 28.7942C29.5328 24.8242 19.6909 23.6768 12.0521 25.9946C11.0624 26.2929 10.0154 25.7364 9.71422 24.7467C9.4159 23.7571 9.97526 22.713 10.962 22.4118C19.6852 19.7641 30.531 21.0464 37.9462 25.6044C38.8268 26.1466 39.105 27.2997 38.5629 28.1804L38.5658 28.1775ZM38.8182 21.3648C31.0761 16.7665 18.3026 16.3449 10.9104 18.588C9.72283 18.9466 8.46929 18.2782 8.10786 17.0907C7.74929 15.9031 8.41766 14.6496 9.60522 14.2881C18.0903 11.7122 32.1976 12.2085 41.1101 17.5009C42.1801 18.1348 42.53 19.5146 41.8961 20.5788C41.265 21.6459 39.8824 21.9987 38.8182 21.3648ZM65.9429 22.2454C61.795 21.2558 61.0578 20.5616 61.0578 19.1044C61.0578 17.7275 62.3543 16.7981 64.2849 16.7981C66.2154 16.7981 68.0082 17.5037 69.953 18.9523C70.0104 18.9954 70.085 19.0126 70.1567 19.0011C70.2313 18.9896 70.2944 18.9495 70.3374 18.8892L72.3626 16.0351C72.4458 15.9175 72.4228 15.754 72.311 15.665C69.9961 13.8091 67.3915 12.9055 64.3451 12.9055C59.8673 12.9055 56.7378 15.5933 56.7378 19.4371C56.7378 23.5592 59.4371 25.0221 64.1013 26.1466C68.0684 27.0616 68.7397 27.8275 68.7397 29.1958C68.7397 30.7133 67.3857 31.657 65.2057 31.657C62.7846 31.657 60.8082 30.8395 58.5995 28.929C58.545 28.8803 58.4704 28.8602 58.4015 28.8631C58.327 28.8688 58.261 28.9032 58.2151 28.9577L55.9432 31.6599C55.8486 31.7746 55.86 31.941 55.969 32.0385C58.5392 34.3333 61.7003 35.5438 65.1139 35.5438C69.9387 35.5438 73.0568 32.9077 73.0568 28.8258C73.0654 25.3807 71.0029 23.4731 65.9515 22.2454H65.9429ZM83.9743 18.152C81.8832 18.152 80.1678 18.9753 78.7508 20.6648V18.7659C78.7508 18.6167 78.6303 18.4934 78.4811 18.4934H74.7664C74.6172 18.4934 74.4968 18.6167 74.4968 18.7659V39.8782C74.4968 40.0273 74.6172 40.1507 74.7664 40.1507H78.4811C78.6303 40.1507 78.7508 40.0273 78.7508 39.8782V33.2146C80.1678 34.8009 81.8832 35.5783 83.9743 35.5783C87.8612 35.5783 91.7968 32.5864 91.7968 26.8666C91.8025 21.1468 87.8669 18.152 83.9772 18.152H83.9743ZM87.4768 26.8666C87.4768 29.7781 85.684 31.8119 83.1138 31.8119C80.5436 31.8119 78.659 29.6863 78.659 26.8666C78.659 24.0468 80.5752 21.9213 83.1138 21.9213C85.641 21.9213 87.4768 24.0009 87.4768 26.8666ZM101.88 18.1549C96.8741 18.1549 92.9528 22.0102 92.9528 26.9297C92.9528 31.8492 96.8482 35.6098 101.819 35.6098C106.791 35.6098 110.775 31.7689 110.775 26.8666C110.775 21.9643 106.868 18.1549 101.88 18.1549ZM101.88 31.8406C99.2176 31.8406 97.2097 29.7007 97.2097 26.8666C97.2097 24.0325 99.1488 21.9528 101.819 21.9528C104.49 21.9528 106.518 24.0927 106.518 26.9297C106.518 29.7666 104.567 31.8435 101.88 31.8435V31.8406ZM121.463 18.4934H117.375V14.314C117.375 14.1648 117.255 14.0414 117.106 14.0414H113.391C113.242 14.0414 113.118 14.1648 113.118 14.314V18.4934H111.334C111.185 18.4934 111.065 18.6167 111.065 18.7659V21.9585C111.065 22.1077 111.185 22.2311 111.334 22.2311H113.118V30.4895C113.118 33.8256 114.779 35.518 118.058 35.518C119.389 35.518 120.493 35.2426 121.535 34.6517C121.621 34.6058 121.672 34.514 121.672 34.4165V31.3759C121.672 31.2841 121.624 31.1952 121.543 31.1464C121.463 31.0948 121.363 31.0919 121.279 31.1349C120.565 31.4935 119.874 31.6599 119.099 31.6599C117.909 31.6599 117.375 31.1177 117.375 29.9072V22.2311H121.463C121.612 22.2311 121.733 22.1077 121.733 21.9585V18.7659C121.738 18.6167 121.618 18.4934 121.466 18.4934H121.463ZM135.702 18.5077V17.9943C135.702 16.4854 136.282 15.8113 137.578 15.8113C138.353 15.8113 138.975 15.9662 139.672 16.1986C139.758 16.2244 139.847 16.2129 139.916 16.1613C139.988 16.1096 140.028 16.0265 140.028 15.9404V12.8109C140.028 12.6904 139.953 12.5842 139.836 12.5498C139.101 12.3318 138.161 12.1052 136.749 12.1052C133.321 12.1052 131.506 14.0357 131.506 17.6902V18.4762H129.721C129.572 18.4762 129.449 18.5995 129.449 18.7487V21.9557C129.449 22.1048 129.572 22.2282 129.721 22.2282H131.506V34.9673C131.506 35.1193 131.629 35.2398 131.778 35.2398H135.49C135.642 35.2398 135.763 35.1193 135.763 34.9673V22.2311H139.231L144.543 34.9673C143.941 36.304 143.347 36.5708 142.538 36.5708C141.884 36.5708 141.193 36.3757 140.49 35.9885C140.424 35.954 140.344 35.9483 140.275 35.9684C140.203 35.9942 140.143 36.0458 140.114 36.1147L138.855 38.8771C138.795 39.009 138.846 39.161 138.972 39.2299C140.286 39.9413 141.471 40.2453 142.937 40.2453C145.679 40.2453 147.196 38.966 148.53 35.5295L154.973 18.8806C155.007 18.7974 154.996 18.7028 154.944 18.6282C154.896 18.5536 154.812 18.5106 154.723 18.5106H150.857C150.739 18.5106 150.636 18.5852 150.598 18.6942L146.637 30.0047L142.3 18.6856C142.26 18.5794 142.159 18.5106 142.047 18.5106H135.702V18.5077ZM127.447 18.4905H123.732C123.583 18.4905 123.459 18.6139 123.459 18.763V34.9644C123.459 35.1164 123.583 35.2369 123.732 35.2369H127.447C127.596 35.2369 127.719 35.1164 127.719 34.9644V18.763C127.719 18.6139 127.599 18.4905 127.447 18.4905ZM125.611 11.1127C124.139 11.1127 122.946 12.3031 122.946 13.7747C122.946 15.2462 124.139 16.4395 125.611 16.4395C127.082 16.4395 128.273 15.2462 128.273 13.7747C128.273 12.3031 127.08 11.1127 125.611 11.1127ZM158.146 23.6997C156.677 23.6997 155.532 22.5179 155.532 21.0865C155.532 19.6551 156.691 18.459 158.16 18.459C159.629 18.459 160.773 19.6379 160.773 21.0722C160.773 22.5064 159.614 23.6997 158.146 23.6997ZM158.16 18.7171C156.82 18.7171 155.808 19.7813 155.808 21.0837C155.808 22.386 156.815 23.4358 158.146 23.4358C159.477 23.4358 160.498 22.3716 160.498 21.0693C160.498 19.767 159.491 18.7171 158.16 18.7171ZM158.739 21.3389L159.479 22.3745H158.854L158.189 21.425H157.618V22.3745H157.096V19.6322H158.318C158.957 19.6322 159.376 19.9592 159.376 20.5071C159.376 20.9574 159.118 21.2328 158.742 21.3389H158.739ZM158.298 20.1026H157.618V20.9689H158.298C158.636 20.9689 158.84 20.8025 158.84 20.5358C158.84 20.2547 158.636 20.1026 158.298 20.1026Z" fill="#1ED760"/>
</svg>
