<svg width="149" height="33" viewBox="0 0 149 33" fill="none" xmlns="http://www.w3.org/2000/svg">
<g clip-path="url(#clip0_78_9)">
<path d="M31.3691 -0.00012207C31.5621 0.276736 31.8557 0.129918 32.0948 0.138307C34.8592 0.264152 37.6278 0.360633 40.3796 0.704609C44.0962 1.16604 45.9797 2.94465 46.5334 6.64868C47.2591 11.4811 47.2843 16.3387 47.0284 21.2047C46.9277 23.1301 46.7683 25.043 46.4118 26.9432C45.8329 30.0348 43.9032 31.8596 40.7739 32.2287C35.6227 32.8412 30.4421 32.8873 25.2698 32.946C19.9718 33.0048 14.6737 32.8621 9.38403 32.514C8.18431 32.4343 6.98459 32.3084 5.80164 32.0903C3.22602 31.6163 1.43903 29.9006 0.881113 27.3376C0.436462 25.3073 0.319006 23.2392 0.155408 21.1754C0.138629 20.9572 0.277058 20.6888 0.00439453 20.5252V12.4333C0.277058 12.2697 0.138629 12.0013 0.155408 11.7831C0.302227 9.96259 0.428072 8.13784 0.734294 6.33406C1.30479 2.95723 3.22183 1.14087 6.61544 0.704609C9.31691 0.360633 12.031 0.276736 14.745 0.142502C14.9841 0.129918 15.2778 0.280931 15.4665 -0.00012207L31.3691 -0.00012207ZM18.9566 9.45921V23.4993C23.0508 21.146 27.0652 18.8388 31.172 16.4772C27.0442 14.1029 23.0382 11.8041 18.9566 9.45921Z" fill="#EE352E"/>
<path d="M148.027 25.8735C147.746 26.0875 147.893 26.4063 147.843 26.6705C147.419 28.877 146.106 30.1858 143.925 30.664C142.536 30.9702 141.148 30.9702 139.78 30.5969C137.678 30.0264 136.684 28.445 136.198 26.465C136.022 25.7435 135.854 25.001 135.837 24.2669C135.74 20.8313 135.422 17.379 136.189 13.9812C136.865 10.9945 138.547 9.65214 141.63 9.51371C142.305 9.48435 142.985 9.47596 143.648 9.59761C146.039 10.0381 147.272 11.3385 147.738 13.8176C147.822 14.2706 147.759 14.7572 148.027 15.1725V21.8213C145.548 21.8045 143.073 21.7878 140.594 21.771C140.372 21.771 140.229 21.8213 140.233 22.0898C140.262 23.579 140.179 25.0807 140.51 26.5489C140.695 27.3627 141.206 27.736 141.999 27.7486C142.796 27.7612 143.304 27.4046 143.56 26.6244C143.753 26.0245 143.849 25.4079 143.836 24.7787C143.828 24.4011 143.895 24.2124 144.352 24.2501C145.405 24.3424 146.467 24.3928 147.524 24.4179C147.792 24.4221 147.868 24.6067 148.027 24.7158V25.8735V25.8735ZM140.237 16.7288C140.237 17.2993 140.246 17.9747 140.237 18.6458C140.233 18.9227 140.262 19.0947 140.615 19.0863C141.504 19.0653 142.393 19.0779 143.283 19.0821C143.488 19.0821 143.669 19.0737 143.66 18.7885C143.627 17.1567 143.727 15.5165 143.392 13.9057C143.216 13.0709 142.666 12.7018 141.827 12.7228C141.118 12.7395 140.724 13.0877 140.51 13.9099C140.279 14.8034 140.321 15.7221 140.242 16.733L140.237 16.7288Z" fill="#121212"/>
<path d="M125.09 12.1314C125.933 10.81 126.91 9.97104 128.269 9.63965C130.342 9.13627 132.087 10.034 132.854 12.0055C133.316 13.1885 133.467 14.4343 133.526 15.676C133.677 18.9689 133.815 22.2703 133.416 25.559C133.299 26.5154 133.085 27.4509 132.708 28.3402C132.12 29.7413 131.176 30.7564 129.599 30.9074C127.867 31.0752 126.373 30.5425 125.274 29.1204C125.174 28.9904 125.086 28.8519 124.951 28.659C124.88 28.8394 124.821 28.961 124.788 29.0869C124.522 30.1104 123.873 30.6222 122.841 30.6222C122.288 30.6222 121.73 30.5844 121.18 30.6306C120.66 30.6767 120.547 30.4837 120.551 29.9887C120.572 25.58 120.564 21.1754 120.564 16.7667C120.564 11.8545 120.58 6.94237 120.543 2.03023C120.538 1.35906 120.74 1.23741 121.344 1.26677C122.33 1.31711 123.324 1.33389 124.305 1.26258C125.01 1.21224 125.107 1.4891 125.102 2.10154C125.073 5.37351 125.09 8.64547 125.09 12.1272V12.1314ZM128.941 20.5168C128.941 19.3633 128.966 18.2055 128.932 17.0561C128.903 15.978 128.852 14.8874 128.488 13.8554C128.139 12.8739 127.225 12.5509 126.34 13.113C125.593 13.587 125.144 14.2623 125.148 15.1978C125.157 18.755 125.148 22.3164 125.148 25.8736C125.148 26.7503 125.602 27.3083 126.449 27.4844C127.368 27.6774 128.014 27.3586 128.362 26.507C128.496 26.1798 128.592 25.8275 128.651 25.4751C128.924 23.8307 128.915 22.1738 128.928 20.5126L128.941 20.5168Z" fill="#121212"/>
<path d="M89.8071 28.0214C88.9766 29.519 87.974 30.4922 86.4681 30.8613C83.796 31.5157 81.7573 30.1356 81.3881 27.4174C81.2874 26.6749 81.2413 25.9366 81.2413 25.1857C81.2455 20.3449 81.2539 15.5041 81.2329 10.6674C81.2329 10.1221 81.3378 9.92494 81.9293 9.95011C83.0577 10.0046 84.1945 9.99206 85.3229 9.95011C85.843 9.92914 85.9521 10.1053 85.9521 10.5961C85.9353 15.2901 85.9395 19.9883 85.9437 24.6823C85.9437 25.4039 85.9269 26.1254 86.1451 26.8301C86.317 27.388 86.6778 27.6523 87.2651 27.6481C88.3809 27.6439 89.2031 26.8343 89.2031 25.7143C89.2031 20.6805 89.2115 15.6509 89.1905 10.6171C89.1905 10.0676 89.3289 9.92914 89.8659 9.95011C91.0446 9.99206 92.2276 9.97948 93.4063 9.95011C93.8258 9.94172 93.9265 10.0843 93.9265 10.4829C93.9139 17.031 93.9181 23.5833 93.9265 30.1314C93.9265 30.4796 93.8761 30.66 93.4608 30.6474C92.5212 30.618 91.5815 30.618 90.6461 30.6474C90.2895 30.66 90.2056 30.5215 90.1637 30.2069C90.0798 29.5483 89.9582 28.8939 89.8155 28.0172L89.8071 28.0214Z" fill="#121212"/>
<path d="M113.701 28.0256C112.946 29.3931 112.056 30.3453 110.718 30.7648C107.816 31.6793 105.546 30.1565 105.24 27.1321C105.101 25.7855 105.127 24.439 105.127 23.0925C105.122 18.948 105.135 14.8077 105.11 10.6632C105.11 10.0885 105.257 9.93328 105.823 9.95426C106.951 10.0004 108.088 9.99621 109.217 9.95426C109.724 9.93748 109.854 10.0843 109.854 10.5919C109.833 15.3362 109.842 20.0806 109.846 24.8291C109.846 25.4541 109.821 26.0792 109.997 26.6916C110.219 27.4509 110.58 27.711 111.373 27.6354C112.388 27.539 113.088 26.7881 113.088 25.7855C113.088 20.7517 113.097 15.7179 113.076 10.6842C113.076 10.143 113.168 9.92489 113.772 9.95426C114.926 10.0088 116.084 9.98782 117.241 9.96265C117.665 9.95426 117.816 10.0423 117.816 10.508C117.799 17.0351 117.799 23.5623 117.816 30.0936C117.816 30.5299 117.724 30.6809 117.262 30.6599C116.373 30.6222 115.479 30.6389 114.59 30.6557C114.25 30.6641 114.078 30.6012 114.045 30.1985C113.99 29.5399 113.843 28.8855 113.705 28.0298L113.701 28.0256Z" fill="#121212"/>
<path d="M78.8798 20.8105C78.842 22.2409 78.8881 24.1412 78.5106 26.0205C77.8185 29.4812 75.956 31.0165 72.4323 30.983C71.6856 30.9746 70.9431 30.9075 70.2132 30.7355C67.9355 30.1985 66.8406 28.6087 66.3624 26.4567C66.1568 25.5381 66.0394 24.6068 66.01 23.6714C65.9177 20.6175 65.7374 17.5637 66.333 14.5309C67.1133 10.5625 69.7141 9.26635 73.4642 9.61871C76.3838 9.89137 78.0366 11.3973 78.6365 15.3698C78.884 17.0184 78.8881 18.6795 78.884 20.8105H78.8798ZM70.7082 20.2484C70.7082 21.5698 70.6789 22.8953 70.7166 24.2167C70.7418 25.1018 70.7879 25.9953 71.1319 26.8343C71.3626 27.3964 71.7779 27.7236 72.3946 27.7487C73.0238 27.7739 73.4391 27.4299 73.6866 26.8888C73.8963 26.4274 73.9928 25.9324 74.0305 25.4248C74.2696 22.3248 74.1396 19.2207 74.1186 16.1207C74.1144 15.2859 74.0389 14.4386 73.6991 13.6457C73.46 13.0836 73.0322 12.7648 72.4155 12.769C71.7989 12.769 71.371 13.0878 71.1403 13.6583C70.9599 14.1072 70.8718 14.577 70.8131 15.0552C70.5992 16.7835 70.7376 18.5159 70.704 20.2442L70.7082 20.2484Z" fill="#121212"/>
<path d="M51.9023 2.31562C53.3579 2.31562 54.7758 2.32821 56.1937 2.30724C56.6006 2.30304 56.5922 2.59248 56.6383 2.82739C57.5528 7.29488 58.635 11.7246 59.4111 16.2215C59.4195 16.2676 59.4446 16.3096 59.4782 16.3851C59.9438 14.145 60.3885 11.9302 60.8709 9.72369C61.3743 7.40395 61.9196 5.0926 62.423 2.77286C62.4859 2.47503 62.5362 2.30304 62.9012 2.31143C64.2939 2.3324 65.6907 2.31982 67.1673 2.31982C66.7101 3.94741 66.2738 5.51628 65.8334 7.08095C64.533 11.7204 63.2326 16.3599 61.928 20.9994C61.8357 21.3308 61.8231 21.6622 61.8231 21.9977C61.8231 24.6237 61.8063 27.2455 61.8357 29.8714C61.8441 30.4503 61.7266 30.6768 61.0932 30.6433C60.0361 30.5888 58.9748 30.5971 57.9177 30.6433C57.364 30.6643 57.1752 30.53 57.192 29.9427C57.2382 28.4032 57.1333 26.8554 57.2256 25.32C57.3766 22.7612 56.911 20.3282 56.1978 17.8826C54.7297 12.8446 53.3789 7.7689 51.982 2.70994C51.9527 2.59668 51.9359 2.48342 51.9023 2.31982V2.31562Z" fill="#121212"/>
<path d="M101.926 18.3691C101.926 22.2241 101.914 26.0792 101.939 29.93C101.939 30.5089 101.779 30.6599 101.221 30.6348C100.189 30.5886 99.1492 30.5844 98.1131 30.6348C97.5132 30.6641 97.3538 30.4837 97.3538 29.8839C97.3748 23.428 97.3664 16.9722 97.3664 10.5164C97.3664 9.24114 97.3496 7.96171 97.3748 6.68649C97.3832 6.23345 97.2825 6.05307 96.7791 6.07404C95.6255 6.11599 94.4678 6.07404 93.31 6.09502C92.8947 6.10341 92.7101 6.03209 92.7311 5.55388C92.773 4.66458 92.7647 3.77108 92.7311 2.88178C92.7185 2.4581 92.8108 2.30289 93.2764 2.30709C97.5174 2.32806 101.754 2.32806 105.995 2.30709C106.452 2.30709 106.566 2.43293 106.549 2.8692C106.515 3.78367 106.519 4.69814 106.549 5.61681C106.561 6.00273 106.436 6.10341 106.062 6.09502C104.955 6.07404 103.843 6.12019 102.74 6.07404C102.111 6.04468 101.893 6.1873 101.901 6.87945C101.939 10.7093 101.918 14.5392 101.918 18.3691H101.926Z" fill="#121212"/>
<path d="M18.9565 9.45923C23.0381 11.8041 27.0442 14.1071 31.1719 16.4772C27.0651 18.8389 23.0507 21.146 18.9565 23.4993V9.45923Z" fill="#FDFDFC"/>
</g>
<defs>
<clipPath id="clip0_78_9">
<rect width="148.027" height="32.9587" fill="white"/>
</clipPath>
</defs>
</svg>
