<svg width="1440" height="137" viewBox="0 0 1440 137" fill="none" xmlns="http://www.w3.org/2000/svg">
<path d="M-128.483 167.56L-123.351 100.324C-123.308 100.069 -123.264 99.8058 -123.221 99.5427C-123.035 99.5739 -122.85 99.6052 -122.673 99.6438C-121.662 98.8858 -120.65 98.1279 -119.639 97.37L-118.423 97.4203C-118.703 95.3538 -117.357 95.6409 -116.137 95.74C-115.453 97.1204 -114.293 97.5943 -113.008 97.8522L-113.002 97.78C-112.112 96.8749 -110.99 96.5056 -109.807 96.2705C-109.641 96.2517 -109.478 96.2569 -109.314 96.2702C-108.561 95.9194 -107.82 95.4383 -106.96 95.7344C-106.893 95.0694 -106.827 94.4043 -106.76 93.7392C-106.37 93.7387 -105.979 93.7462 -105.596 93.745C-105.027 93.048 -104.465 92.3424 -103.895 91.6375C-103.548 91.181 -103.186 90.7419 -102.748 90.4302C-102.31 90.1184 -101.81 89.9247 -101.186 89.9431C-101.201 89.7319 -101.217 89.5206 -101.232 89.3174C-101.019 89.2862 -100.814 89.2625 -100.609 89.2388C-100.185 88.5058 -99.7621 87.7728 -99.3387 87.0398C-99.5988 86.7602 -99.859 86.4805 -100.119 86.2009C-97.5832 85.6476 -96.3949 82.1656 -93.2893 82.8541C-91.3881 81.91 -89.3701 81.1774 -87.7918 79.6496C-87.5771 79.6024 -87.3624 79.5552 -87.1477 79.508C-86.9827 79.1903 -86.8101 78.8731 -86.6451 78.5553C-86.8719 77.7372 -86.6193 76.9903 -86.3054 76.2565C-84.7668 75.5575 -84.8373 72.9991 -82.7309 72.9522C-82.6845 72.754 -82.6297 72.5484 -82.5834 72.3502C-81.933 72.3304 -81.2521 72.2161 -80.847 72.9518C-80.0671 72.9747 -79.8322 72.3557 -79.546 71.7812C-77.4583 69.9313 -76.3589 67.3064 -74.7064 65.1142C-74.5212 65.1454 -74.3341 65.1525 -74.1452 65.1356C-73.4227 65.1943 -72.6931 65.2616 -72.0714 65.5141C-71.4425 65.7752 -70.9138 66.2221 -70.5788 67.0571C-68.7323 67.2394 -69.7313 68.9597 -69.1807 69.8365L-67.5584 70.0895C-66.7225 71.2237 -67.5077 73.3166 -65.508 73.7457C-64.7461 74.1065 -63.7885 73.4411 -62.8742 74.4686C-64.5183 74.7066 -66.3971 74.8448 -65.0783 77.2299C-64.9145 77.2351 -64.7448 77.265 -64.5841 77.3104C-63.2506 76.6352 -62.7354 77.8726 -62.0768 78.5642C-61.4975 79.1687 -61.2179 80.1123 -60.1652 80.0443C-60.0407 80.2564 -59.9155 80.4604 -59.7988 80.6719C-59.9615 81.0626 -60.1248 81.4613 -60.2797 81.8526C-59.9882 82.5387 -59.5911 83.0718 -58.753 82.946C-58.4913 82.6926 -58.2542 82.5584 -58.0523 82.5748C-57.8269 82.5931 -57.632 82.8028 -57.4935 83.2422C-56.3746 83.842 -55.1886 84.3827 -54.9278 85.8821C-54.7155 87.4019 -54.03 88.6612 -52.9944 89.7389C-52.9192 90.0843 -52.8432 90.4216 -52.768 90.767C-51.7186 91.4581 -50.6697 92.1573 -49.6209 92.8564C-47.4888 93.3931 -45.7791 95.1638 -43.4437 95.087L-43.2883 95.0996C-42.6358 95.1526 -42.4168 95.6632 -42.2751 96.2644C-41.2624 96.5163 -40.7431 97.1886 -40.692 98.259C-40.1942 98.2914 -39.6886 98.3244 -39.1907 98.3567L-39.1829 98.3573C-37.842 97.8928 -37.5891 98.7777 -37.4823 99.8365C-38.8428 101.479 -36.3816 102.212 -36.484 103.553C-36.4932 103.673 -36.5185 103.8 -36.5756 103.933C-34.3123 105.312 -34.9847 107.875 -34.3418 109.898C-34.1215 110.595 -34.7079 111.621 -33.9449 112.071C-32.9944 112.625 -32.7263 111.467 -32.2495 110.957C-31.8494 110.529 -31.4467 110.271 -31.0039 110.307C-30.7709 110.326 -30.5284 110.426 -30.2622 110.626C-29.8603 110.48 -29.4655 110.327 -29.0635 110.182C-28.8859 110.107 -28.7083 110.033 -28.5306 109.958C-27.7065 109.71 -27.1715 108.437 -26.1331 108.966C-25.7152 108.612 -25.2903 108.267 -24.8653 107.922C-24.6226 107.61 -24.3728 107.307 -24.1307 107.004C-23.0153 107.24 -21.8998 107.476 -20.7928 107.719C-18.9799 108.957 -17.3445 108.937 -16.2503 106.788C-15.6528 105.617 -14.697 105.896 -13.7914 105.808C-13.2228 104.812 -12.375 104.663 -11.3894 104.961L-10.8778 105.633C-10.7051 105.623 -10.5341 105.637 -10.3573 105.675C-9.21585 106.39 -7.76551 106.54 -7.37395 108.373C-7.07351 109.763 -5.76612 109.328 -4.75665 109.006C-4.33059 108.443 -3.90454 107.88 -3.48633 107.316C-3.31827 107.265 -3.15984 107.238 -2.98705 107.227C-2.07353 105.5 -0.385518 107.657 0.635816 106.464C1.67034 107.145 2.73307 107.765 3.84381 108.267C4.9546 108.769 6.1134 109.154 7.33228 109.366L7.34007 109.367C7.92432 108.881 8.42272 108.292 8.97122 107.763C9.51966 107.234 10.1254 106.774 10.9076 106.563C11.4596 106.091 12.1011 106.288 12.7251 106.307C13.5238 106.186 14.3226 106.065 15.1207 105.952C15.4439 105.712 15.7665 105.48 16.082 105.239C16.5098 103.73 17.3792 102.581 18.8765 102.218C20.079 101.928 20.0174 103.248 20.4841 103.892C20.5299 104.009 20.5686 104.117 20.6066 104.233C20.809 104.346 21.0115 104.46 21.221 104.582C22.6203 105.196 23.589 106.535 25.0853 107.004C25.2356 107.186 25.3704 107.366 25.5057 107.539C25.5679 107.544 25.6306 107.541 25.6928 107.546C26.7415 107.631 27.6994 108.089 28.6161 108.777L28.6985 108.824C30.3647 108.911 31.1329 110.113 31.6127 111.509C31.9443 112.489 32.1739 113.372 33.4445 113.112C34.4023 112.341 35.106 112.851 35.7602 113.599C35.7008 113.763 35.7351 113.928 35.8257 114.073C36.0809 114.416 36.3277 114.768 36.5164 115.163C36.5925 115.395 36.6446 115.633 36.6818 115.863C36.938 115.989 37.1985 116.058 37.4548 116.079C38.7833 116.187 40.0943 115.09 41.4261 115.053C41.6769 114.532 41.9355 114.012 42.1934 113.499C44.0617 113.603 45.9299 113.706 47.7981 113.809C48.6362 112.763 49.2932 111.427 50.3536 110.745C52.031 109.662 52.1043 108.19 52.0286 106.519C52.8895 106.097 53.9171 105.946 54.4008 104.935C55.1126 104.621 55.8442 104.358 56.4779 103.941C57.111 103.532 57.6452 102.985 57.9307 102.112C58.5793 101.809 59.2361 101.499 59.893 101.189C60.3182 100.739 60.7124 100.9 61.0242 101.321C61.321 101.733 61.0935 102.256 61.1841 102.707C61.5011 104.187 62.0778 105.131 63.5949 103.792C63.8182 103.632 64.0408 103.481 64.2718 103.322C64.7036 102.581 64.8245 101.816 64.4645 101.003C64.6313 100.968 64.7975 100.941 64.9625 100.93C65.9122 99.0363 66.9436 98.8374 67.9631 100.843C68.527 101.955 69.5312 102.521 70.4222 103.24C70.4411 103.403 70.4677 103.567 70.502 103.731C70.3229 103.926 70.2579 104.163 70.2312 104.412C70.4473 104.857 70.6461 105.326 70.8274 105.817C71.4214 106.843 72.1511 107.831 71.7063 109.152C71.626 109.59 71.5534 110.028 71.5114 110.477C71.4727 110.676 71.4574 110.877 71.4499 111.078C71.4684 111.346 71.4883 111.598 71.6944 111.663C72.6212 112.118 73.5401 112.573 74.4669 113.028C75.6069 112.329 76.4122 113.145 77.2868 113.669C77.6018 113.024 77.9627 112.803 78.3511 112.834C78.7396 112.866 79.1706 113.159 79.5978 113.501C79.7714 113.685 79.9289 113.875 80.0773 114.081C80.0917 114.099 80.1053 114.124 80.1112 114.149C82.4926 114.391 84.8122 115.031 87.2124 115.129C87.6875 115.152 88.0573 115.529 88.0934 116.082C88.1388 116.101 88.1842 116.121 88.2218 116.14C89.3971 115.388 90.8505 116.112 92.0477 115.482C92.449 115.345 92.8456 115.167 93.241 115.005C95.4997 115.318 95.8007 115.779 94.6537 117.697C94.6537 117.697 94.6751 117.723 94.6817 117.74C96.0645 116.931 97.7119 117.162 99.1546 116.593C99.7084 116.403 100.237 116.139 100.841 116.205C101.596 116.46 102.405 116.614 102.996 117.163L103.012 117.164C103.254 117.063 103.501 117.002 103.76 116.983C106.258 117.032 108.851 117.574 110.941 115.49C111.121 115.279 111.315 115.101 111.538 114.933C111.743 114.812 111.961 114.717 112.186 114.638C112.286 114.259 112.667 113.975 113.01 113.776C114.057 113.167 114.48 112.135 115.016 111.16C115.943 110.283 117.079 110.141 118.26 110.14C118.325 110.201 118.4 110.24 118.474 110.294C118.645 109.395 119.219 109.248 120.017 109.539C119.986 107.695 121.363 106.757 122.42 105.607C123.065 105.15 123.819 104.686 124.555 104.988C128.02 106.385 131.509 105.327 134.978 105.149C136.548 105.066 137.698 105.362 137.794 107.179C137.857 108.493 138.748 108.298 139.546 108.597C141.279 109.247 143.487 108.78 144.728 110.658C147.125 109.157 148.852 109.257 150.432 110.984C150.858 112.069 151.116 113.197 151.325 114.345C151.55 116.932 152.66 118.565 155.421 118.442C160.43 117.233 164.848 119.369 169.33 121.074C169.778 121.248 170.005 121.751 170.197 122.211C170.209 122.261 170.213 122.309 170.225 122.359C170.483 122.452 170.723 122.585 170.945 122.757C171.018 122.827 171.082 122.905 171.146 122.983C173.568 121.984 175.737 122.54 177.31 124.566C177.499 122.715 178.74 122.534 180.344 122.914C181.338 123.512 182.469 121.294 183.428 122.454C183.644 122.496 183.849 122.569 184.045 122.674C184.526 123.02 184.936 123.489 185.543 123.628C185.65 122.74 185.679 121.635 186.904 123.722C187.112 124.07 187.468 124.317 187.846 124.073C189.188 123.189 190.284 123.779 191.382 124.344C191.714 124.299 192.051 124.286 192.392 124.321C192.639 124.261 192.892 124.233 193.15 124.229C194.284 124.524 195.48 124.023 196.626 124.165C197.296 124.09 197.947 123.957 198.558 123.627C198.513 123.51 198.467 123.393 198.46 123.272C198.451 122.98 198.503 122.718 198.632 122.461C198.79 122.232 198.999 122.055 199.236 121.921C199.26 121.915 199.283 121.917 199.314 121.919C199.42 120.328 200.553 120.437 201.889 120.86C202.624 121.267 203.346 121.738 204.224 121.195C206.332 119.896 208.403 120.921 210.497 121.245C210.577 121.017 210.731 120.843 210.958 120.733C212.291 120.687 213.465 120.969 214.145 122.308C214.382 122.675 214.501 123.072 214.413 123.509C214.404 123.525 214.395 123.532 214.379 123.539C214.751 123.892 214.927 124.343 214.966 124.855C215.001 125.73 214.92 126.588 214.693 127.418C214.895 128.242 215.565 128.385 217.052 127.949C219.106 127.356 221.606 126.356 223.147 129.211C223.146 129.219 223.131 129.218 223.121 129.233C226.003 131.115 226.028 127.717 227.375 126.768C227.494 126.632 227.6 126.584 227.707 126.609C227.71 126.577 227.728 126.546 227.738 126.515C228.605 124.986 229.743 123.794 231.218 122.807C233.509 121.264 235.623 121.42 237.812 122.858C238.184 123.106 238.604 123.237 239.022 123.384C239.418 122.811 239.731 122.085 240.488 122.203C240.537 122.175 240.571 122.145 240.628 122.117C241.514 122.076 242.008 122.464 242.053 123.316C243.025 122.563 244.369 123.278 245.366 122.615C247.149 122.09 249.114 122.161 250.615 120.724C250.951 120.412 251.472 120.446 251.885 120.77C251.537 119.595 251.84 118.699 252.917 118.108C253.44 118.021 253.958 117.998 254.443 118.094C255.073 117.822 255.619 117.43 255.819 116.55C256.496 115.773 257.108 114.926 257.856 114.244C258.502 113.666 259.317 112.714 259.989 114.255C260.979 113.875 261.543 114.891 262.273 115.362C263.305 115.761 264.341 115.716 265.31 115.205C268.226 113.665 270.793 114.447 273.209 116.388C274.409 117.463 276.406 117.108 277.372 118.584C277.14 117.119 278.57 116.912 279.254 116.144C279.485 115.993 279.742 115.893 280.019 115.851C280.486 115.88 280.933 115.86 281.367 115.807C281.482 115.735 281.597 115.664 281.712 115.592C281.691 115.453 281.679 115.307 281.666 115.168C282.244 112 283.958 113.311 285.503 113.953C285.453 113.893 285.402 113.848 285.359 113.788C285.157 113.368 285.151 112.931 285.186 112.482C285.209 112.177 285.301 111.893 285.438 111.63C286.431 109.683 287.7 108.219 290.12 108.666C291.223 108.869 292.027 107.86 293.036 107.635C293.043 107.554 293.071 107.492 293.084 107.42C293.186 107.106 293.34 106.835 293.554 106.594C295.248 105.488 296.98 104.611 299.105 104.832C301.618 105.093 302.501 106.126 302.066 108.643C302.168 108.845 302.261 109.063 302.345 109.288C302.352 109.304 302.359 109.321 302.357 109.337C303.027 109.375 303.743 109.514 303.993 108.493C305.442 107.229 306.857 105.898 308.956 106.149C309.007 106.097 309.058 106.044 309.102 105.975C309.136 105.946 309.17 105.908 309.203 105.879C309.16 105.625 309.188 105.36 309.279 105.093C309.79 104.238 310.468 103.647 311.5 103.65C312.731 104.42 314.375 104.691 315.037 106.159L315.06 106.161C315.505 106.172 315.939 106.224 316.366 106.356L316.751 106.847C317.723 106.304 318.656 106.873 318.971 107.666C319.542 109.094 320.628 109.408 321.729 109.837C321.529 109.287 321.675 108.806 322.097 108.388C322.188 108.323 322.287 108.266 322.385 108.21C322.377 108.007 322.47 107.813 322.671 107.627C324.086 107.637 325.524 107.94 326.422 106.421C326.471 106.183 326.588 105.99 326.742 105.817C326.892 105.587 327.092 105.426 327.342 105.325C327.714 105.064 328.108 104.813 328.323 104.459C328.474 104.213 328.647 104.001 328.835 103.79C331.296 102.471 332.468 99.9251 334.068 97.8014C334.469 97.2604 334.736 96.6359 335.377 96.3245C335.649 96.2496 335.924 96.2315 336.202 96.2703C336.339 96.3138 336.475 96.3814 336.594 96.4557C336.181 95.3155 336.764 94.7489 337.95 94.5626C339.461 94.3299 340.963 94.3145 342.408 94.9489C342.47 95.1639 342.526 95.3543 342.566 95.5434C342.583 95.5206 342.593 95.4971 342.602 95.4736C344.417 94.1347 346.63 93.4987 348.194 91.6547C349.104 90.5897 350.238 90.3749 351.828 91.5623C353.114 92.5311 355.225 92.331 357.027 92.5744C357.526 91.6698 358.2 91.5468 359.033 92.0992L359.037 92.059C359.565 91.593 360.084 91.6514 360.584 92.0637C360.584 92.0637 360.608 92.0495 360.617 92.0421C360.603 92.0167 360.582 91.9908 360.568 91.9654C360.746 90.3482 361.479 89.9634 362.862 90.7866C363.348 91.0765 363.777 91.4021 364.146 91.7956C364.485 91.3385 364.832 90.8981 365.466 90.877C367.274 91.2582 367.846 92.5809 368.044 94.1803C368.561 94.2628 368.978 94.547 369.374 94.8781C369.668 95.0231 369.964 95.1441 370.276 95.2503C371.343 96.0235 373.447 95.8067 372.885 98.1441C372.746 98.3266 372.572 98.4579 372.385 98.5558C373.807 99.1722 374.893 100.004 374.545 101.696C375.398 100.965 376.153 101.31 376.969 102.402C378.097 103.907 379.079 105.578 380.773 106.532C381.603 106.817 382.159 106.297 382.728 105.802C382.944 105.634 383.187 105.524 383.443 105.456C385.536 105.473 386.763 107.228 388.13 108.357C389.587 109.55 390.642 110.064 392.362 109.25C393.173 108.864 394.153 108.515 395.072 109.075C394.524 107.544 395.977 107.25 396.683 106.5C396.894 106.404 397.11 106.332 397.325 106.285C397.252 105.399 398.016 104.912 398.828 104.517C399.908 103.991 401.042 103.574 401.985 102.786C402.254 102.639 402.534 102.564 402.832 102.548C405.154 102.85 406.957 101.357 408.962 100.583C410.533 99.975 411.887 99.9558 413.182 101.111C413.306 101.234 413.396 101.387 413.462 101.538C415.505 100.064 417.723 99.7918 419.676 100.734C419.694 100.695 419.712 100.664 419.739 100.626C419.936 100.287 420.207 100.018 420.528 99.8097C420.419 99.3889 420.462 98.9319 420.521 98.4681C421.61 93.1121 425.576 91.1321 430.072 89.7769C430.514 89.8209 430.916 89.7808 431.291 89.682C432.117 89.1029 432.919 88.4329 433.847 88.1449C434.296 87.7936 434.752 87.451 435.249 87.1925C435.71 86.9957 436.179 86.7914 436.64 86.5785C437.583 86.4128 438.155 85.5788 438.968 85.1682C439.112 85.1314 439.253 85.1187 439.394 85.122C439.174 84.4095 439.308 83.7822 440.186 83.6516C441.143 83.5032 441.197 84.3395 441.089 85.0336C440.902 86.2543 441.591 87.0615 442.23 87.905C442.482 88.9029 442.983 89.9211 442.286 90.858C443.148 91.1301 443.642 91.9376 444.338 92.4465C444.494 92.5561 444.633 92.6805 444.772 92.8049C445.359 93.2 445.75 93.7083 445.986 94.3091C446.242 94.7419 446.465 95.2042 446.671 95.6734C446.776 95.9404 446.818 96.2103 446.828 96.4858C446.949 96.5361 447.062 96.5937 447.184 96.6359C447.441 96.7537 447.663 96.9092 447.86 97.1028C447.952 97.2234 448.028 97.3507 448.104 97.4861C450.163 97.3384 451.598 98.1982 452.081 100.685C452.31 101.883 453.059 102.517 454.303 102.497C457.425 102.468 460.545 102.447 463.325 100.637C463.481 100.44 463.645 100.235 463.809 100.039C463.708 98.3905 465.198 98.2287 466.088 97.8325C466.775 97.533 467.132 98.701 467.421 99.4192C467.558 99.7696 467.944 100.35 467.959 100.351C470.183 99.0701 472.668 101.025 474.869 99.7496C475.07 99.564 475.265 99.3699 475.459 99.1837C475.709 97.952 477.099 97.2571 476.949 95.8393C477.505 95.626 478.068 95.4212 478.623 95.2159C479.153 94.9278 479.529 94.821 479.793 94.8425C480.741 94.9195 480.355 96.5926 480.855 97.2148C482.175 97.3221 483.494 97.4535 484.814 97.5769L484.815 97.5608C484.846 96.9494 484.877 96.338 484.908 95.7266C485.161 95.1736 485.407 94.62 485.652 94.0664C487.06 92.7268 488.605 92.7635 490.116 93.7506C490.728 94.1396 491.313 94.4538 491.986 94.5569C491.986 94.5488 491.988 94.5328 492.004 94.526C492.205 94.3485 492.418 94.2124 492.654 94.0942C492.812 94.0747 492.977 94.0638 493.141 94.069C493.352 93.3431 493.727 92.7435 494.352 92.3338C494.621 91.7821 494.882 91.2218 495.151 90.6701C496.938 87.1237 498.638 86.874 501.119 89.7009C501.86 90.5446 502.81 91.2035 503.668 91.9437L503.676 91.9443C503.968 90.9906 504.259 90.0449 504.558 89.0918C504.744 88.913 504.93 88.7262 505.116 88.5393C506.306 88.6279 506.569 89.7882 507.244 90.4731C508.77 90.9526 510.402 91.0852 511.823 91.9196C514.574 90.5033 515.017 92.68 515.594 94.6494C518.695 92.5345 520.95 94.5271 523.127 96.4166C524.293 97.4241 525.348 98.2529 526.912 97.4268C527.785 98.3863 528.691 98.9042 529.631 98.9806C530.571 99.057 531.577 98.6783 532.602 97.8488L532.58 97.8228C532.958 97.0699 533.589 96.7981 534.363 96.7883C535.697 96.3151 537.036 95.8745 538.35 95.3512C539.141 95.0357 539.691 95.2986 539.956 96.0229C540.874 98.5371 542.236 98.5184 543.715 97.8792C544.076 97.6662 544.419 97.3709 544.747 96.9614C544.967 96.64 545.158 96.292 545.348 95.9521C545.604 95.5609 545.852 95.1772 546.101 94.7854C547.821 93.8669 549.368 92.7406 550.612 91.2018C550.64 91.1314 550.669 91.061 550.691 90.982C550.73 90.8801 550.776 90.787 550.822 90.6938C550.815 90.5882 550.839 90.4771 550.926 90.363C551.016 90.2007 551.091 90.0371 551.151 89.8643C551.357 89.7356 551.554 89.6142 551.759 89.4855C551.994 89.2704 552.244 89.0645 552.502 88.8674C552.629 88.8373 552.764 88.8159 552.891 88.7859C553.921 89.225 554.912 89.2489 555.802 88.4408C556.023 87.8933 556.237 87.6522 556.424 87.6673C556.633 87.6844 556.821 87.9904 556.992 88.5133C558.002 88.4903 558.156 87.3961 558.831 86.9582C560.206 86.246 560.856 86.848 561.045 88.2689C564.379 89.1376 567.592 88.7202 570.725 87.4156C570.728 87.3755 570.7 87.3328 570.696 87.284C570.945 87.0862 571.203 86.881 571.453 86.6832C571.691 86.3229 571.93 85.9626 572.168 85.6103C573.387 83.6657 574.81 84.686 576.208 85.3166C576.199 85.437 576.19 85.5574 576.181 85.6778C576.197 85.6711 576.205 85.6717 576.213 85.6643C580.313 84.6888 584.422 83.8029 588.676 84.294C589.73 84.4199 590.461 84.8752 590.77 85.9504C592.052 87.5893 593.368 89.1907 595.62 89.3818C595.779 89.3462 595.93 89.3181 596.088 89.2906C596.204 88.4922 596.755 88.0361 597.328 87.5979C597.364 87.2213 597.401 86.8366 597.438 86.4599C600.211 84.2295 603.349 85.1145 606.416 85.2829C607.498 85.3386 607.634 86.4239 608.319 86.8754C608.121 87.2147 607.915 87.5535 607.71 87.8922C607.676 88.7377 607.832 89.4692 608.74 89.7611C609.105 89.5888 609.471 89.3924 609.829 89.4214C610.062 89.4403 610.295 89.5563 610.515 89.8488C610.893 91.9717 613.721 93.3243 612.328 96.006C612.508 96.2065 612.68 96.4143 612.851 96.6221C613.823 96.8949 614.404 97.4753 614.375 98.5796C614.703 99.3009 615.231 99.7478 616.012 99.8597C617.272 97.5952 618.828 97.0754 620.809 98.9811C622.857 100.214 624.633 98.6538 626.535 98.4125C627.08 98.5456 627.624 98.6867 628.177 98.8205C629.251 98.0676 630.339 97.3321 631.406 96.5545C632.341 95.8792 633.249 95.6621 634.164 96.5766C634.367 96.577 634.562 96.5847 634.765 96.5931L634.72 96.6622C636.902 95.8378 638.88 95.11 640.138 98.2979C640.636 99.5501 642.564 98.8746 643.809 99.2505C645.782 98.288 645.42 100.787 646.484 101.18C647.14 101.807 647.716 102.759 648.513 102.767C648.555 102.415 648.613 102.064 648.649 101.704C648.97 100.364 649.803 99.3741 650.77 98.4833C651.253 97.9974 651.949 97.7874 652.354 97.1983C652.538 96.9305 652.733 96.7363 652.925 96.5822C653.634 95.4847 654.712 95.5885 655.796 96.549C656.659 97.3219 657.523 97.6828 658.459 97.7023C658.805 97.5769 659.15 97.3626 659.506 97.0038C659.743 96.8696 659.999 96.7854 660.268 96.7426C660.361 96.7582 660.437 96.7806 660.514 96.803C661.011 96.3264 661.611 96.052 662.093 96.39C664.059 97.7776 665.532 97.0088 666.989 96.0528C667.116 95.6188 667.219 95.191 667.152 94.7332C667.77 93.297 668.308 91.7736 670.125 91.5255C669.979 91.1904 670.04 90.9046 670.402 90.6674L670.38 90.6415C670.602 90.086 670.904 89.6097 671.476 89.3976C671.566 88.2094 672.555 87.6436 673.5 87.0498C674.216 86.9868 674.905 86.7681 675.605 86.6069C675.584 86.476 675.656 86.3526 675.836 86.238C675.865 86.0707 675.9 85.912 675.936 85.7533C676.295 85.7583 676.647 85.7546 677.006 85.7596C678.466 84.8684 679.009 86.0515 679.696 86.9878C681.181 89.031 682.26 91.5905 685.228 91.8316C685.4 91.8214 685.58 91.8199 685.752 91.8177C685.942 91.6878 686.115 91.6775 686.27 91.7951C686.396 91.6761 686.525 91.5331 686.639 91.3647C688.069 90.8589 689.641 92.691 691 91.0647C691.068 90.9005 691.128 90.7278 691.18 90.5543C691.385 90.4336 691.589 90.3209 691.793 90.2082C692.938 89.0249 694.07 87.8244 695.429 86.909C696.127 86.6749 696.878 86.7763 697.241 87.347C698.862 89.8697 701.735 91.2503 702.893 94.2039C703.718 96.2905 705.046 94.4677 706.148 94.4684C706.153 94.3962 706.182 94.3338 706.195 94.2622C707.335 92.6423 708.897 92.0502 710.798 91.7201C713.452 91.2571 715.986 90.219 718.69 89.8087C720.375 89.5578 720.704 86.9834 722.542 86.5672C723.272 86.1096 723.882 85.4968 724.504 84.9173C726.476 84.3828 726.88 86.2654 727.613 87.3025C728.199 88.1256 728.764 88.6077 729.437 88.7028C729.937 88.6061 730.428 88.4278 730.936 88.2187C730.984 87.1805 731.545 86.798 732.513 87.3209C733.242 87.7033 733.898 87.9181 734.666 87.5847C734.845 87.3973 735.016 87.2011 735.187 87.0131C736.527 88.0993 737.094 90.2942 739.213 90.2806C739.214 90.2645 739.215 90.2565 739.216 90.2404C740.006 88.7051 740.981 88.9378 741.855 90.0752C742.589 91.0153 742.646 92.2074 742.821 93.401C743.124 95.4774 743.472 97.6706 745.949 98.3969L741.074 162.261L740.876 162.301L739.963 158.075L738.031 159.122L735.405 157.066L735.199 159.764L732.276 161.602L731.016 157.833L728.506 158.348C728.506 158.348 726.627 158.591 725.965 159.175C725.303 159.76 722.884 163.077 722.834 161.797C722.775 160.515 722.272 156.961 722.272 156.961L719.549 158.234L717.895 161.67L716.014 157.947L713.862 157.772L711.565 159.605C711.565 159.605 708.355 157.106 708.391 156.633C708.427 156.159 706.13 157.887 706.13 157.887L704.893 159.862L702.615 161.43L700.417 159.814L698.001 161.055L693.874 162.481L692.072 159.774L692.253 157.397C692.253 157.397 688.221 159.623 687.763 159.585C687.305 159.548 686.286 158.666 686.286 158.666L682.423 158.675L680.511 161.395L678 157.839L675.291 160.971L675.582 157.158L674.128 155.925L672.106 158.152L669.662 157.8L666.994 160.297C666.994 160.297 666.112 161.817 665.861 161.005C665.611 160.185 664.946 158.854 665.007 158.06L665.186 155.707L661.688 156.99L661.579 158.419L660.468 160.785L659.415 158.405L657.858 160.573L655.861 160.41L655.062 158.689L653.537 158.404L651.099 160.023L648.385 161.176L646.47 161.982L644.391 160.852L643.248 159.644L641.506 160.141L639.602 162.862L636.078 164.49L633.157 164.252L631.015 165.993L628.346 164.5L627.155 163.926L626.252 165.606L624.385 167.853L618.084 167.341L616.568 168.971L615.185 168.859L614.513 167.528L611.651 168.572L606.199 171.166L604.443 169.909L600.862 168.18L597.793 167.93L597.097 166.913L595.122 168.513L591.757 169.993L588.075 169.693L587.053 170.887L584.14 170.65L581.508 172.674L579.317 175.049L579.656 170.609L577.983 170.311L575.734 171.405L571.619 172.67L569.948 174.287L567.83 171.724L565.052 171.66L563.092 171.016L560.003 170.927C560.003 170.927 558.596 171.135 558.341 170.477C558.08 169.809 557.223 168.948 557.223 168.948L555.253 170.379L555.168 171.495L552.903 172.902L551.837 170.586L550.911 168.588L549.419 169.905L548.528 171.432L547.216 172.44L545.22 172.278L545.304 171.17L543.068 172.103L542.151 172.029L541.347 170.372L540.348 169.33L537.932 170.571L536.02 169.301L534.468 171.405L532.16 171.217L532.415 167.885L530.185 168.827L529.307 170.194L528.25 171.861L527.59 170.369L526.098 171.686L526.182 170.578L524.509 170.28L522.813 172.219L521.585 172.119L521.779 169.582L519.278 171.931L517.822 172.774L518.053 169.756L516.573 170.912L515.116 169.832L514.118 170.712L512.912 172.375L509.067 172.063L508.296 170.078L507.502 170.336L504.385 170.721L503.545 169.538L502.546 168.496L501.236 171.427L499.819 169.712L498.781 171.227L497.243 171.102L495.571 168.729L494.6 167.212L494.504 168.481L492.359 168.306L491.389 166.79L489.826 166.986L487.347 167.099L486.336 166.218L484.906 164.664L483.257 164.053L482.058 163.479L480.311 164.137L479.278 165.491L476.869 166.725L475.367 166.126L475.307 166.921L474.053 169.218L471.166 170.575L470.312 171.628L468.774 171.503L468.81 171.022L465.853 171.266L464.48 169.079L462.704 167.973L461.246 170.892L460.173 170.805L460.283 169.376L459.562 168.679L458.227 167.932L457.313 169.773L457.156 171.836L455.555 170.583L453.827 168.851L453.09 168.468L453.017 169.424L450.804 170.043L450.707 171.312L448.245 171.112L446.63 172.095L444.381 173.189L443.577 171.532L443.698 169.943L442.289 172.227L442.083 174.925L439.856 173.783L438.726 176.405L438.665 177.2L437.379 175.819L437.428 175.185L435.419 175.183L434.287 175.883L433.085 173.394L433.267 171.01L432.51 170.787L431.21 171.642L429.611 172.312L427.614 172.15L427.518 173.418L425.485 173.73L424.836 172.086L423.357 173.242L422.299 174.909L422.445 173.006L420.64 172.383L419.364 172.917L416.443 172.68L417.006 175.44L416.297 174.583L415.009 175.278L414.07 177.439L412.411 174.905L412.605 172.368L411.789 170.864L410.635 169.809L409.708 171.81L408.372 173.139L406.243 172.651L406.377 170.901L407.291 169.061L405.608 170.838L404.148 171.843L403.296 170.812L401.516 169.868L400.518 170.748L400.627 169.319L399.162 168.239L396.348 168.648L394.375 168.173L393.364 167.291L391.523 167.141L389.358 167.127L387.039 167.092L386.027 166.218L385.016 165.336L383.512 166.806L382.792 166.109L380.195 167.659L379.953 170.83L378.8 167.707L377.042 168.517L375.31 166.939L375.104 169.636L373.17 170.602L371.232 171.721L369.487 170.303L368.684 168.638L367.093 169.309L366.265 167.965L365.547 165.192L365.402 167.095L361.765 168.238L361.959 165.701L360.637 164.794L359.412 166.608L357.536 164.857L356.02 166.494L355.839 168.871L353.517 166.929L352.11 167.13L350.574 164.929C350.574 164.929 348.946 166.081 349.041 166.881C349.128 167.687 348.771 170.219 348.771 170.219L346.938 166.072L347.951 164.878L345.991 164.242L346.1 162.813L344.509 163.483L343.116 165.446L341.418 165.47L339.169 166.563C339.169 166.563 338.352 167.135 338.085 166.629C337.811 166.13 337.342 164.177 337.342 164.177L335.993 165.667L333.888 166.934L332.386 166.327L332.265 167.917L330.882 167.804L329.895 166.609L328.429 165.529L326.435 163.291L326.277 165.354L324.773 166.831L323.231 170.858L321.188 169.254L319.562 168.323L319.745 165.938L317.037 166.995L315.931 165.313L316.222 161.5L314.382 163.273L313.145 161.25L311.811 160.503L312.09 156.851L310.765 158.027C310.765 158.027 310.066 159.085 309.656 158.414C309.239 157.742 308.95 155.481 308.95 155.481L309.108 153.418L307.026 154.363L306.293 153.827L305.199 151.985L306.162 149.503L304.057 150.77L302.504 152.881L300.747 151.624L299.102 150.852L297.516 151.361L296.589 149.363L295.243 148.777L295.642 143.543L292.041 144.123L290.997 145.718L288.437 146.786L287.042 146.835C287.042 146.835 285.476 147.184 285.033 146.833C284.6 146.475 283.82 144.497 283.82 144.497L283.627 147.034L281.111 147.629L281.244 145.887L279.585 147.343L278.19 147.392L276.696 146.794L276.072 144.82L274.485 145.338L274.292 147.875L272.753 147.75L271.021 146.171C271.021 146.171 271.405 145.241 271.118 144.903C270.84 144.557 268.952 142.966 268.952 142.966L269.007 142.251L266.322 142.913L264.838 144.231L262.53 144.043L260.907 145.026L258.586 147.075L256.91 148.853L254.818 147.892L254.66 149.955L252.809 151.881L251.4 150.167L249.971 148.613L249.204 146.474L247.987 148.29L246.301 148.153L242.671 147.058L241.371 147.914L240.602 147.852L239.385 149.667L236.982 148.672L236.031 150.994L232.902 151.54L231.519 151.427L230.52 150.385L229.646 147.6L228.343 150.531L227.465 151.898L226.272 153.392L226.139 155.142L224.831 155.997L223.508 155.09L222.005 156.559L220.424 159.145L217.779 157.339L217.913 155.589L216.689 151.337L216.337 155.945L214.955 155.833L213.463 157.15L212.357 159.451L210.409 158.654L209.264 159.523L207.667 158.108L206.379 158.804L206.246 160.554L203.211 161.907L202.047 162.927L200.724 162.02L200.664 162.814L198.437 161.672L197.115 164.764L194.645 166.801L194.031 166.751L193.396 164.938L194.47 162.949L192.578 165.51L190.872 165.533L189.681 164.959L187.566 164.303L188.105 167.384L187.19 169.224L185.66 169.1L184.83 169.832L179.454 169.395L178.29 170.415L176.145 170.241L176.363 167.391L175.376 170.179L174.461 172.027L173.234 171.927L172.671 169.167L171.696 171.802L170.551 172.662L170.769 169.804L168.954 171.256L167.63 172.425L166.706 172.35L166.924 169.492L165.25 173.193L163.193 173.825L162.242 172.149L161.109 172.856L160.102 171.813L159.197 171.586L157.816 173.389L156.301 175.018L155.022 173.638L153.387 174.782L153.327 175.577L151.485 175.427L149.908 177.859L148.758 176.643L147.747 175.761L146.209 175.636L146.305 174.368L143.394 172.055L143.237 174.119L141.434 171.419L140.391 170.85L140.136 174.19L139.134 175.223L138.246 174.674L137.067 173.94L134.639 175.334L133.132 174.897L133.619 173.442L134.532 170.697L131.473 176.362C131.473 176.362 130.175 175.133 130.211 174.66L130.369 172.596L129.2 173.778L127.635 176.05L126.254 173.862L124.411 175.788L123.317 177.929L122.62 176.919L120.971 176.3L120.716 179.64L119.792 179.565L117.686 180.831L117.747 180.037L115.21 178.869L113.793 177.155L113.647 179.065L111.939 181.156L110.893 178.68L110.04 179.725C110.04 179.725 108.965 181.714 108.56 180.882C108.162 180.058 106.622 178.01 106.622 178.01L105.374 178.07L104.385 178.951L104.324 179.746C104.324 179.746 103.925 180.877 103.481 180.655C103.036 180.433 101.272 179.175 101.272 179.175L99.996 179.709L99.814 182.094L98.9726 182.978L97.7451 182.879L95.9741 183.858L94.4944 185.014L94.3614 186.756L90.6712 186.456L89.6815 187.337L88.5554 185.807L88.4463 187.236C88.4463 187.236 87.7358 188.455 86.9666 188.393L84.667 188.206C84.667 188.206 82.4161 191.375 82.7792 190.613C83.1506 189.843 84.033 184.325 84.033 184.325L82.648 182.193L81.4108 180.275L81.9034 185.905L81.7459 187.968L79.9552 185.109L79.1616 185.367L77.2843 185.691L76.1413 184.484L76.3595 181.626L74.2299 183.206L72.6896 185.157L72.0173 183.826L72.1142 182.557L70.1761 183.676C70.1761 183.676 69.6107 182.992 69.516 182.185C69.4213 181.377 68.9167 179.898 68.9167 179.898C68.9167 179.898 66.9541 181.338 66.7163 180.358L66.4857 179.386L63.5385 181.537L60.7728 181.313L57.6673 181.545L55.2169 181.184L53.7249 182.501L51.2945 181.98C51.2945 181.98 51.9061 184.106 51.137 184.044C50.3679 183.981 47.7958 181.219 47.7958 181.219L46.8812 179.069L47.0265 177.166L45.2823 179.739L44.0548 179.639L40.8693 180.818C40.8693 180.818 39.9308 178.981 39.9792 178.347L40.2697 174.541L37.7202 177.525L36.5268 179.028L34.8314 176.967L32.1019 176.269L29.8552 175.287L28.5429 172.304L28.6759 170.562L27.1717 172.039L26.3686 170.375L23.6273 169.829L22.6521 168.473L21.257 168.522L21.0995 170.585L18.8528 169.603L19.4644 171.728L18.5984 172.934L17.1086 172.175L15.9738 174.959L15.2068 172.82L15.3397 171.078L13.86 172.234L11.7081 172.059L10.9127 170.395L9.07358 168.17L9.20657 166.428L7.46279 165.002L7.20784 168.341L3.01087 168.639L3.16837 166.575L0.548159 168.438L-1.08928 167.667L-3.16832 166.537L-5.03344 166.701L-6.53549 166.102L-7.79698 164.4L-9.57814 163.464L-10.565 162.261L-10.456 160.832L-11.8371 162.642L-13.6804 164.568L-14.7965 164.954L-15.5333 164.571L-16.8555 163.664L-18.6705 165.116L-19.5872 165.041L-20.8125 162.866L-22.2806 163.869L-23.2051 163.794L-24.0444 162.603L-24.7089 161.273L-26.6547 162.391L-27.8822 162.291C-27.8822 162.291 -29.9272 162.763 -29.7234 162.142C-29.5196 161.52 -28.7361 159.346 -28.7361 159.346L-30.7794 161.741L-32.8483 162.526L-32.7392 161.097L-35.158 160.424L-36.8684 160.608C-36.8684 160.608 -37.9504 162.596 -38.0567 161.941C-38.1637 161.295 -38.7675 159.169 -38.7675 159.169L-40.2209 161.927L-42.6758 161.728L-42.5183 159.664L-44.4347 162.546L-44.2894 160.643L-45.9122 161.626C-45.9122 161.626 -47.4259 161.18 -47.5452 160.694C-47.6566 160.208 -48.4598 158.544 -48.4598 158.544L-50.5416 159.497L-50.408 157.747L-53.6682 157.959L-55.348 155.593L-55.1537 153.048L-56.6239 156.127L-56.0239 158.406L-58.3582 156.625L-58.1762 154.24L-59.9932 157.768L-61.4729 158.924L-63.5036 157.16L-65.573 157.953L-65.6821 159.382L-68.1472 157.267L-70.0608 158.065L-71.6576 156.659L-72.635 157.379L-75.4954 156.347L-74.6092 158.972L-76.529 157.701L-77.89 159.351L-81.3782 156.507L-82.6909 157.523L-85.0004 159.412L-87.0433 157.808L-88.8361 157.024L-90.7741 158.143L-92.992 152.688L-92.1569 158.031L-93.4161 158.243L-94.4275 157.361L-94.6702 160.541L-96.6769 158.463L-96.786 159.892L-99.1947 161.134L-100.357 160.078L-101.225 159.37L-102.646 161.807L-104.063 160.092C-104.063 160.092 -106.24 160.239 -106.359 159.752C-106.47 159.259 -106.963 157.627 -106.963 157.627L-108.263 162.473L-109.427 163.494L-111.596 163.641L-114.997 161.603L-117.44 161.243L-119.243 162.535L-120.676 165.132L-122.731 163.689L-125.211 163.811L-126.077 165.017L-127.833 167.75L-128.483 167.56Z" fill="#121212"/>
<path d="M1539.5 151.741L1532.76 84.6564C1532.71 84.4025 1532.66 84.1406 1532.61 83.8788C1532.43 83.9147 1532.24 83.9506 1532.07 83.9937C1531.04 83.2617 1530.01 82.5296 1528.98 81.7976L1527.77 81.8788C1528 79.8058 1526.66 80.127 1525.44 80.257C1524.79 81.6543 1523.64 82.1575 1522.36 82.448L1522.36 82.3759C1521.44 81.4936 1520.31 81.153 1519.13 80.948C1518.96 80.9333 1518.8 80.9427 1518.63 80.9601C1517.87 80.6286 1517.12 80.1665 1516.27 80.4843C1516.18 79.8211 1516.1 79.1579 1516.02 78.4948C1515.63 78.5041 1515.24 78.5215 1514.86 78.5301C1514.27 77.8478 1513.69 77.1567 1513.11 76.4664C1512.75 76.0189 1512.37 75.5891 1511.93 75.2885C1511.48 74.988 1510.98 74.807 1510.36 74.8413C1510.37 74.6297 1510.38 74.4181 1510.39 74.2145C1510.17 74.1888 1509.97 74.1703 1509.76 74.1518C1509.32 73.4298 1508.88 72.7077 1508.44 71.9857C1508.69 71.6996 1508.95 71.4134 1509.2 71.1273C1506.65 70.6385 1505.38 67.1877 1502.29 67.9548C1500.37 67.0592 1498.34 66.378 1496.72 64.8908C1496.51 64.8491 1496.29 64.8073 1496.07 64.7656C1495.9 64.4521 1495.72 64.1394 1495.55 63.8259C1495.76 63.0023 1495.49 62.262 1495.15 61.5364C1493.6 60.8767 1493.61 58.3173 1491.5 58.3238C1491.45 58.1269 1491.39 57.9228 1491.34 57.7258C1490.69 57.7225 1490.01 57.6255 1489.62 58.3712C1488.84 58.414 1488.59 57.8011 1488.29 57.234C1486.16 55.4377 1485 52.8415 1483.29 50.6919C1483.11 50.7278 1482.92 50.7396 1482.73 50.7275C1482.01 50.8045 1481.28 50.8904 1480.67 51.1585C1480.05 51.4355 1479.53 51.8957 1479.21 52.7389C1477.37 52.9681 1478.41 54.6624 1477.88 55.5529L1476.27 55.847C1475.46 57.0021 1476.29 59.0745 1474.3 59.5541C1473.55 59.9342 1472.58 59.2933 1471.69 60.3437C1473.34 60.5399 1475.22 60.6303 1473.96 63.0482C1473.79 63.0576 1473.62 63.0918 1473.46 63.1413C1472.12 62.5001 1471.63 63.7502 1470.99 64.4583C1470.42 65.0773 1470.17 66.0277 1469.11 65.9865C1468.99 66.2017 1468.87 66.4088 1468.76 66.6232C1468.93 67.0096 1469.11 67.404 1469.27 67.7913C1468.99 68.4846 1468.61 69.0276 1467.77 68.9231C1467.5 68.6764 1467.26 68.5483 1467.06 68.5698C1466.84 68.5938 1466.65 68.8084 1466.52 69.2512C1465.41 69.8792 1464.24 70.4498 1464.02 71.9554C1463.84 73.4801 1463.18 74.7564 1462.17 75.8601C1462.11 76.2073 1462.04 76.5465 1461.97 76.8937C1460.94 77.6112 1459.91 78.3367 1458.88 79.0623C1456.76 79.653 1455.09 81.4665 1452.75 81.4489L1452.6 81.4655C1451.95 81.5351 1451.74 82.051 1451.61 82.6557C1450.61 82.9332 1450.1 83.6184 1450.08 84.6899C1449.58 84.7348 1449.08 84.7806 1448.58 84.8256L1448.57 84.8265C1447.22 84.3961 1446.99 85.2871 1446.91 86.3483C1448.31 87.9557 1445.86 88.751 1446 90.0887C1446.01 90.2089 1446.04 90.3353 1446.1 90.4665C1443.87 91.903 1444.6 94.4477 1444.01 96.4867C1443.8 97.1885 1444.42 98.2001 1443.66 98.669C1442.73 99.2468 1442.43 98.0964 1441.94 97.5981C1441.53 97.1804 1441.12 96.9326 1440.68 96.9798C1440.45 97.0047 1440.21 97.1113 1439.95 97.3173C1439.54 97.1825 1439.14 97.0388 1438.74 96.904C1438.56 96.8341 1438.38 96.7643 1438.2 96.6944C1437.37 96.4673 1436.81 95.208 1435.78 95.7628C1435.35 95.4197 1434.92 95.0855 1434.49 94.7513C1434.24 94.446 1433.98 94.1496 1433.73 93.8524C1432.62 94.1167 1431.51 94.381 1430.41 94.6524C1428.63 95.9358 1426.99 95.9568 1425.85 93.8365C1425.22 92.6808 1424.27 92.9846 1423.37 92.9196C1422.77 91.9385 1421.92 91.8108 1420.95 92.1339L1420.45 92.8184C1420.28 92.8125 1420.11 92.8308 1419.93 92.8738C1418.81 93.6173 1417.36 93.8042 1417.01 95.6468C1416.74 97.0436 1415.43 96.6419 1414.41 96.3458C1413.97 95.7936 1413.53 95.2414 1413.1 94.6884C1412.93 94.6417 1412.77 94.6182 1412.6 94.6124C1411.64 92.909 1410.01 95.1078 1408.96 93.9407C1407.94 94.6486 1406.89 95.2949 1405.8 95.8251C1404.7 96.3554 1403.55 96.7696 1402.33 97.0126L1402.33 97.0135C1401.73 96.5428 1401.22 95.966 1400.66 95.4511C1400.1 94.9362 1399.48 94.492 1398.69 94.3008C1398.13 93.8428 1397.49 94.0566 1396.87 94.0908C1396.07 93.9902 1395.27 93.8896 1394.47 93.7971C1394.14 93.565 1393.81 93.341 1393.49 93.1081C1393.02 91.6113 1392.13 90.4846 1390.62 90.1597C1389.41 89.9002 1389.51 91.2181 1389.06 91.8735C1389.01 91.9914 1388.98 92.1005 1388.94 92.2176C1388.74 92.3361 1388.54 92.4546 1388.34 92.5819C1386.95 93.2318 1386.01 94.5948 1384.53 95.1016C1384.38 95.2872 1384.25 95.4711 1384.12 95.647C1384.06 95.6537 1384 95.6523 1383.94 95.659C1382.89 95.7708 1381.94 96.2524 1381.04 96.9639L1380.96 97.013C1379.3 97.1422 1378.56 98.3627 1378.11 99.7706C1377.8 100.759 1377.6 101.647 1376.32 101.419C1375.34 100.674 1374.65 101.201 1374.02 101.965C1374.08 102.128 1374.05 102.293 1373.96 102.44C1373.71 102.791 1373.48 103.148 1373.3 103.548C1373.23 103.782 1373.18 104.022 1373.15 104.252C1372.9 104.384 1372.64 104.46 1372.38 104.488C1371.06 104.629 1369.72 103.566 1368.39 103.562C1368.12 103.048 1367.85 102.535 1367.58 102.029C1365.72 102.18 1363.85 102.33 1361.99 102.481C1361.12 101.456 1360.43 100.137 1359.36 99.483C1357.66 98.4424 1357.55 96.9724 1357.58 95.3008C1356.71 94.8999 1355.68 94.7753 1355.17 93.7771C1354.46 93.4815 1353.72 93.2364 1353.07 92.8356C1352.43 92.4428 1351.88 91.9102 1351.58 91.0443C1350.92 90.7581 1350.26 90.4647 1349.59 90.1714C1349.16 89.7322 1348.77 89.9034 1348.47 90.3323C1348.18 90.7516 1348.42 91.2684 1348.34 91.7222C1348.06 93.2096 1347.5 94.1674 1345.96 92.8675C1345.73 92.7136 1345.5 92.5678 1345.27 92.4147C1344.82 91.6855 1344.68 90.9232 1345.02 90.1015C1344.85 90.0708 1344.69 90.0482 1344.52 90.0415C1343.53 88.1723 1342.49 87.9996 1341.52 90.0303C1340.98 91.1563 1339.99 91.7479 1339.12 92.489C1339.1 92.6525 1339.08 92.8168 1339.05 92.982C1339.23 93.1729 1339.3 93.4082 1339.34 93.6557C1339.13 94.1067 1338.94 94.5801 1338.77 95.0759C1338.2 96.1164 1337.5 97.1229 1337.97 98.4321C1338.07 98.8677 1338.15 99.3041 1338.2 99.7518C1338.24 99.9496 1338.26 100.15 1338.28 100.351C1338.26 100.619 1338.25 100.872 1338.05 100.942C1337.13 101.421 1336.22 101.898 1335.31 102.377C1334.15 101.707 1333.37 102.543 1332.5 103.089C1332.17 102.452 1331.81 102.24 1331.42 102.282C1331.03 102.323 1330.61 102.628 1330.19 102.98C1330.02 103.168 1329.87 103.363 1329.72 103.572C1329.71 103.59 1329.7 103.616 1329.69 103.64C1327.32 103.943 1325.01 104.642 1322.62 104.801C1322.14 104.836 1321.78 105.222 1321.76 105.775C1321.71 105.796 1321.67 105.817 1321.63 105.837C1320.44 105.115 1319 105.875 1317.79 105.276C1317.39 105.149 1316.98 104.982 1316.59 104.83C1314.34 105.2 1314.05 105.668 1315.24 107.557C1315.24 107.557 1315.22 107.583 1315.21 107.6C1313.81 106.827 1312.17 107.099 1310.71 106.567C1310.15 106.392 1309.62 106.141 1309.02 106.222C1308.27 106.496 1307.46 106.671 1306.89 107.235L1306.87 107.236C1306.62 107.141 1306.38 107.087 1306.12 107.074C1303.62 107.187 1301.04 107.794 1298.9 105.764C1298.72 105.557 1298.52 105.384 1298.29 105.222C1298.08 105.107 1297.86 105.017 1297.64 104.944C1297.53 104.567 1297.14 104.293 1296.79 104.103C1295.73 103.52 1295.28 102.499 1294.73 101.539C1293.78 100.685 1292.64 100.572 1291.46 100.601C1291.39 100.664 1291.32 100.704 1291.25 100.761C1291.06 99.8664 1290.48 99.7338 1289.69 100.045C1289.67 98.2005 1288.28 97.2975 1287.19 96.1747C1286.54 95.7346 1285.77 95.2901 1285.04 95.6108C1281.61 97.0946 1278.1 96.1261 1274.63 96.0355C1273.06 95.9929 1271.91 96.3174 1271.86 98.1365C1271.83 99.4515 1270.93 99.28 1270.14 99.5992C1268.43 100.293 1266.21 99.8821 1265.01 101.791C1262.58 100.351 1260.85 100.494 1259.32 102.262C1258.92 103.357 1258.69 104.491 1258.5 105.644C1258.34 108.236 1257.27 109.896 1254.51 109.844C1249.47 108.762 1245.1 111.01 1240.66 112.828C1240.22 113.013 1240.01 113.522 1239.83 113.987C1239.81 114.036 1239.81 114.085 1239.8 114.135C1239.54 114.235 1239.31 114.374 1239.09 114.551C1239.02 114.623 1238.96 114.703 1238.89 114.782C1236.45 113.845 1234.29 114.456 1232.77 116.522C1232.54 114.676 1231.29 114.526 1229.7 114.947C1228.72 115.57 1227.53 113.381 1226.6 114.565C1226.39 114.613 1226.19 114.691 1225.99 114.801C1225.52 115.159 1225.12 115.639 1224.52 115.792C1224.39 114.907 1224.33 113.804 1223.16 115.921C1222.96 116.274 1222.61 116.53 1222.23 116.296C1220.86 115.446 1219.78 116.063 1218.7 116.657C1218.36 116.62 1218.03 116.615 1217.69 116.66C1217.44 116.605 1217.19 116.584 1216.93 116.587C1215.8 116.91 1214.59 116.44 1213.45 116.61C1212.78 116.552 1212.12 116.436 1211.51 116.122C1211.55 116.004 1211.59 115.886 1211.6 115.764C1211.6 115.472 1211.54 115.211 1211.4 114.959C1211.24 114.733 1211.03 114.562 1210.79 114.433C1210.76 114.428 1210.74 114.43 1210.71 114.434C1210.57 112.846 1209.44 112.983 1208.11 113.44C1207.39 113.866 1206.67 114.355 1205.78 113.835C1203.65 112.59 1201.6 113.666 1199.51 114.043C1199.43 113.817 1199.27 113.648 1199.04 113.543C1197.71 113.532 1196.54 113.843 1195.89 115.199C1195.66 115.572 1195.56 115.972 1195.65 116.407C1195.66 116.422 1195.67 116.429 1195.69 116.435C1195.32 116.798 1195.16 117.253 1195.13 117.766C1195.12 118.642 1195.22 119.497 1195.47 120.321C1195.28 121.15 1194.62 121.31 1193.12 120.911C1191.05 120.371 1188.53 119.435 1187.06 122.328C1187.06 122.336 1187.07 122.335 1187.08 122.35C1184.25 124.304 1184.14 120.907 1182.77 119.993C1182.65 119.86 1182.54 119.815 1182.44 119.843C1182.43 119.811 1182.42 119.78 1182.4 119.749C1181.5 118.243 1180.33 117.08 1178.84 116.131C1176.51 114.647 1174.4 114.856 1172.25 116.349C1171.88 116.607 1171.46 116.749 1171.05 116.906C1170.64 116.343 1170.31 115.625 1169.55 115.762C1169.5 115.735 1169.47 115.707 1169.41 115.68C1168.53 115.662 1168.04 116.062 1168.02 116.914C1167.03 116.186 1165.7 116.935 1164.69 116.298C1162.89 115.818 1160.93 115.939 1159.4 114.54C1159.05 114.237 1158.53 114.285 1158.13 114.619C1158.45 113.435 1158.12 112.547 1157.03 111.984C1156.51 111.91 1155.99 111.901 1155.51 112.009C1154.87 111.753 1154.31 111.375 1154.09 110.5C1153.4 109.741 1152.77 108.909 1152 108.246C1151.34 107.685 1150.51 106.755 1149.87 108.312C1148.87 107.957 1148.33 108.986 1147.61 109.476C1146.59 109.901 1145.55 109.882 1144.57 109.396C1141.62 107.93 1139.07 108.777 1136.71 110.779C1135.53 111.884 1133.53 111.58 1132.6 113.08C1132.79 111.61 1131.36 111.44 1130.66 110.689C1130.42 110.544 1130.16 110.45 1129.88 110.415C1129.42 110.457 1128.97 110.448 1128.54 110.405C1128.42 110.337 1128.3 110.268 1128.19 110.2C1128.2 110.06 1128.21 109.914 1128.22 109.775C1127.57 106.623 1125.89 107.976 1124.36 108.658C1124.41 108.596 1124.46 108.55 1124.5 108.489C1124.69 108.064 1124.68 107.627 1124.64 107.178C1124.61 106.874 1124.51 106.593 1124.37 106.333C1123.33 104.412 1122.02 102.981 1119.62 103.489C1118.52 103.72 1117.69 102.731 1116.68 102.532C1116.67 102.452 1116.64 102.39 1116.62 102.319C1116.51 102.007 1116.35 101.741 1116.13 101.505C1114.41 100.442 1112.66 99.6092 1110.54 99.8841C1108.04 100.209 1107.18 101.264 1107.67 103.769C1107.57 103.974 1107.49 104.194 1107.41 104.421C1107.4 104.438 1107.4 104.454 1107.4 104.47C1106.73 104.526 1106.02 104.683 1105.74 103.668C1104.26 102.441 1102.82 101.147 1100.73 101.451C1100.67 101.4 1100.62 101.349 1100.57 101.281C1100.54 101.252 1100.51 101.215 1100.47 101.187C1100.51 100.932 1100.47 100.668 1100.38 100.403C1099.85 99.5615 1099.15 98.9877 1098.12 99.017C1096.91 99.8185 1095.27 100.131 1094.65 101.615L1094.62 101.617C1094.18 101.64 1093.75 101.703 1093.32 101.845L1092.95 102.347C1091.96 101.828 1091.04 102.421 1090.75 103.221C1090.21 104.663 1089.13 105.005 1088.04 105.461C1088.23 104.907 1088.07 104.43 1087.64 104.023C1087.55 103.96 1087.45 103.906 1087.35 103.852C1087.35 103.649 1087.26 103.457 1087.05 103.277C1085.64 103.322 1084.2 103.661 1083.27 102.166C1083.22 101.929 1083.09 101.74 1082.94 101.57C1082.78 101.344 1082.58 101.188 1082.32 101.093C1081.95 100.842 1081.55 100.602 1081.32 100.253C1081.17 100.011 1080.99 99.8031 1080.8 99.5971C1078.3 98.3413 1077.07 95.8254 1075.42 93.743C1075.01 93.2123 1074.73 92.5948 1074.08 92.2997C1073.8 92.2318 1073.53 92.2207 1073.25 92.2665C1073.12 92.3135 1072.98 92.3845 1072.86 92.4618C1073.25 91.3114 1072.65 90.7598 1071.46 90.6037C1069.95 90.4094 1068.45 90.4322 1067.02 91.103C1066.96 91.3196 1066.91 91.5113 1066.87 91.7013C1066.85 91.679 1066.84 91.6557 1066.83 91.6325C1064.99 90.34 1062.76 89.7604 1061.15 87.9567C1060.22 86.915 1059.08 86.7291 1057.52 87.9565C1056.26 88.9577 1054.14 88.8111 1052.34 89.1002C1051.82 88.2086 1051.15 88.1027 1050.33 88.6761L1050.32 88.636C1049.78 88.1835 1049.27 88.2551 1048.78 88.6799C1048.78 88.6799 1048.75 88.6663 1048.74 88.6592C1048.76 88.6335 1048.78 88.607 1048.79 88.5813C1048.57 86.9691 1047.83 86.603 1046.47 87.4611C1045.99 87.7632 1045.57 88.0996 1045.21 88.5023C1044.86 88.054 1044.5 87.6225 1043.87 87.6175C1042.07 88.0444 1041.53 89.3813 1041.37 90.9853C1040.85 91.0808 1040.44 91.3755 1040.06 91.7166C1039.77 91.869 1039.47 91.9974 1039.16 92.1115C1038.12 92.9116 1036.01 92.7482 1036.62 95.0706C1036.77 95.2496 1036.94 95.3765 1037.13 95.4696C1035.73 96.1219 1034.66 96.9805 1035.05 98.6635C1034.18 97.9549 1033.43 98.3181 1032.64 99.4307C1031.55 100.964 1030.61 102.66 1028.94 103.656C1028.12 103.963 1027.55 103.456 1026.97 102.976C1026.75 102.813 1026.5 102.71 1026.24 102.648C1024.15 102.718 1022.97 104.504 1021.63 105.668C1020.2 106.897 1019.16 107.438 1017.42 106.668C1016.6 106.302 1015.61 105.979 1014.7 106.561C1015.22 105.017 1013.76 104.76 1013.03 104.028C1012.82 103.937 1012.6 103.871 1012.39 103.829C1012.44 102.941 1011.66 102.474 1010.84 102.1C1009.75 101.601 1008.61 101.214 1007.64 100.45C1007.37 100.309 1007.09 100.242 1006.79 100.234C1004.48 100.594 1002.64 99.1469 1000.62 98.4239C999.032 97.8565 997.678 97.8716 996.41 99.0595C996.29 99.1857 996.203 99.3407 996.14 99.4931C994.063 98.0716 991.839 97.8558 989.91 98.8472C989.89 98.8089 989.872 98.7785 989.844 98.7409C989.638 98.4067 989.361 98.1448 989.036 97.9448C989.134 97.5214 989.081 97.0656 989.011 96.6035C987.794 91.2767 983.783 89.398 979.255 88.1573C978.814 88.2125 978.411 88.1826 978.034 88.0934C977.195 87.5354 976.377 86.886 975.442 86.6216C974.985 86.2818 974.521 85.9509 974.018 85.7051C973.553 85.52 973.079 85.3277 972.613 85.1266C971.666 84.9848 971.075 84.1656 970.252 83.7758C970.108 83.7426 969.966 83.7335 969.825 83.7404C970.028 83.0226 969.879 82.3989 968.998 82.2905C968.038 82.1664 968.004 83.0039 968.128 83.695C968.345 84.9106 967.675 85.735 967.056 86.5945C966.828 87.5986 966.352 88.6291 967.071 89.5481C966.215 89.8419 965.741 90.6617 965.057 91.1881C964.904 91.3016 964.768 91.4295 964.632 91.5574C964.054 91.9673 963.676 92.4854 963.454 93.092C963.209 93.5311 962.997 93.999 962.802 94.4732C962.703 94.7428 962.668 95.0138 962.664 95.2894C962.544 95.3427 962.433 95.4032 962.312 95.4485C962.058 95.5728 961.839 95.7338 961.648 95.9324C961.558 96.0553 961.485 96.1845 961.413 96.3218C959.35 96.2264 957.936 97.1224 957.513 99.6207C957.313 100.824 956.579 101.477 955.335 101.489C952.214 101.539 949.093 101.597 946.271 99.8583C946.11 99.665 945.941 99.4645 945.773 99.272C945.835 97.6219 944.342 97.498 943.442 97.1245C942.748 96.8425 942.42 98.0192 942.148 98.7445C942.019 99.0983 941.647 99.6885 941.631 99.6902C939.378 98.4656 936.94 100.483 934.71 99.2638C934.504 99.0834 934.305 98.8943 934.106 98.7131C933.827 97.4881 932.421 96.8286 932.537 95.4075C931.976 95.2084 931.408 95.018 930.849 94.8268C930.312 94.5522 929.934 94.455 929.67 94.4832C928.725 94.5842 929.15 96.247 928.665 96.8817C927.348 97.0225 926.032 97.1873 924.716 97.3441L924.715 97.3281C924.669 96.7177 924.623 96.1072 924.578 95.4968C924.311 94.9504 924.053 94.4032 923.794 93.856C922.355 92.5525 920.811 92.6284 919.324 93.6536C918.722 94.058 918.144 94.3869 917.474 94.5071C917.473 94.499 917.472 94.483 917.456 94.4766C917.25 94.3043 917.033 94.1736 916.795 94.0615C916.637 94.046 916.471 94.0393 916.308 94.0487C916.079 93.3283 915.691 92.7384 915.056 92.3447C914.774 91.8 914.499 91.2465 914.217 90.7018C912.346 87.2018 910.641 86.9953 908.228 89.8844C907.507 90.7466 906.573 91.4294 905.733 92.1911L905.725 92.192C905.411 91.2459 905.097 90.3079 904.775 89.3627C904.585 89.1887 904.395 89.0066 904.204 88.8246C903.017 88.9433 902.782 90.1099 902.124 90.8117C900.609 91.3298 898.981 91.5038 897.58 92.3741C894.796 91.0279 894.405 93.2152 893.875 95.1987C890.725 93.1631 888.518 95.2124 886.386 97.1565C885.245 98.1933 884.21 99.0487 882.627 98.2625C881.777 99.2438 880.884 99.7846 879.946 99.8848C879.008 99.985 877.993 99.632 876.949 98.8287L876.97 98.8022C876.574 98.0591 875.937 97.8034 875.162 97.8133C873.818 97.374 872.469 96.9676 871.142 96.4778C870.345 96.1825 869.801 96.4592 869.553 97.1901C868.695 99.7267 867.334 99.7426 865.839 99.1412C865.474 98.9373 865.124 98.6509 864.786 98.2498C864.559 97.9341 864.36 97.5911 864.162 97.256C863.896 96.8715 863.639 96.4942 863.381 96.1089C861.64 95.2343 860.065 94.1476 858.786 92.6408C858.756 92.5712 858.725 92.5015 858.702 92.4231C858.66 92.3222 858.612 92.2303 858.563 92.1383C858.568 92.0325 858.542 91.9221 858.452 91.8102C858.358 91.6503 858.279 91.4887 858.214 91.3174C858.006 91.1939 857.806 91.0776 857.598 90.9541C857.358 90.745 857.103 90.5456 856.841 90.355C856.713 90.3282 856.578 90.3103 856.45 90.2835C855.431 90.7485 854.441 90.7977 853.532 90.0123C853.297 89.4707 853.077 89.2351 852.891 89.2549C852.682 89.2773 852.502 89.588 852.343 90.115C851.333 90.1177 851.153 89.0278 850.468 88.6071C849.076 87.93 848.441 88.5483 848.286 89.9735C844.974 90.9266 841.752 90.5908 838.589 89.3662C838.585 89.3262 838.612 89.2828 838.615 89.2339C838.36 89.0425 838.098 88.8439 837.843 88.6525C837.596 88.2983 837.349 87.9442 837.103 87.5981C835.838 85.685 834.439 86.7411 833.057 87.407C833.069 87.5271 833.081 87.6472 833.093 87.7674C833.077 87.761 833.069 87.7619 833.06 87.7547C828.938 86.8835 824.809 86.1022 820.568 86.7011C819.518 86.8537 818.798 87.3274 818.515 88.4101C817.272 90.0811 815.995 91.7154 813.748 91.9635C813.588 91.932 813.436 91.9078 813.277 91.8843C813.143 91.0891 812.581 90.6471 811.998 90.2236C811.953 89.8479 811.906 89.4643 811.861 89.0887C809.035 86.9294 805.92 87.8937 802.858 88.1399C801.777 88.223 801.667 89.3115 800.993 89.7802C801.199 90.1144 801.413 90.4479 801.626 90.7813C801.68 91.6256 801.542 92.3609 800.641 92.6757C800.272 92.5127 799.901 92.3257 799.544 92.3638C799.312 92.3886 799.081 92.5105 798.868 92.8085C798.542 94.9403 795.747 96.3642 797.203 99.0098C797.028 99.2148 796.861 99.4268 796.694 99.639C795.729 99.9364 795.162 100.531 795.218 101.635C794.907 102.364 794.389 102.824 793.611 102.956C792.298 100.724 790.73 100.244 788.796 102.199C786.778 103.484 784.965 101.969 783.057 101.776C782.516 101.923 781.975 102.078 781.426 102.226C780.335 101.5 779.229 100.793 778.143 100.042C777.193 99.3909 776.28 99.197 775.387 100.134C775.184 100.14 774.989 100.153 774.787 100.166L774.833 100.234C772.633 99.4653 770.637 98.7879 769.456 102.007C768.988 103.271 767.044 102.645 765.808 103.052C763.813 102.14 764.235 104.629 763.18 105.049C762.54 105.693 761.987 106.658 761.19 106.687C761.139 106.336 761.073 105.987 761.029 105.627C760.676 104.297 759.819 103.328 758.831 102.462C758.337 101.988 757.636 101.796 757.218 101.217C757.027 100.954 756.827 100.765 756.632 100.616C755.897 99.5369 754.821 99.668 753.761 100.656C752.916 101.45 752.062 101.833 751.126 101.876C750.777 101.76 750.427 101.554 750.063 101.205C749.823 101.076 749.565 100.999 749.295 100.963C749.203 100.981 749.127 101.005 749.051 101.029C748.542 100.566 747.936 100.306 747.462 100.657C745.53 102.094 744.039 101.363 742.56 100.444C742.423 100.013 742.309 99.588 742.365 99.1287C741.713 97.7086 741.139 96.1994 739.316 95.9974C739.455 95.6587 739.387 95.3745 739.02 95.1466L739.04 95.1201C738.805 94.5704 738.492 94.1019 737.916 93.9044C737.797 92.7189 736.794 92.1783 735.836 91.6087C735.119 91.5639 734.425 91.3628 733.721 91.2194C733.739 91.0879 733.664 90.9664 733.481 90.8564C733.448 90.6899 733.409 90.5322 733.37 90.3745C733.011 90.3885 732.659 90.3938 732.3 90.4078C730.819 89.554 730.305 90.7505 729.641 91.7039C728.204 93.7843 727.187 96.3703 724.226 96.6867C724.053 96.6809 723.873 96.684 723.701 96.6862C723.508 96.561 723.335 96.5551 723.183 96.6767C723.054 96.5609 722.922 96.4212 722.804 96.2557C721.362 95.7864 719.834 97.6578 718.436 96.0665C718.365 95.9041 718.301 95.7329 718.245 95.5608C718.037 95.4454 717.831 95.3378 717.624 95.2304C716.45 94.0766 715.291 92.9051 713.91 92.0245C713.206 91.8082 712.458 91.9285 712.109 92.5083C710.549 95.0714 707.71 96.5244 706.622 99.5066C705.847 101.614 704.476 99.825 703.375 99.8536C703.367 99.7815 703.338 99.7199 703.323 99.6487C702.145 98.0582 700.569 97.506 698.661 97.2241C695.996 96.8287 693.439 95.8551 690.725 95.5136C689.035 95.3055 688.644 92.7403 686.798 92.3709C686.056 91.9319 685.432 91.3347 684.796 90.7712C682.812 90.2869 682.454 92.1792 681.745 93.2346C681.179 94.0723 680.625 94.5687 679.955 94.6808C679.453 94.5968 678.958 94.431 678.445 94.2349C678.372 93.1982 677.803 92.83 676.847 93.3774C676.127 93.7781 675.477 94.0095 674.701 93.6957C674.518 93.5129 674.342 93.3211 674.167 93.1375C672.853 94.2574 672.339 96.466 670.22 96.5062C670.218 96.4902 670.217 96.4821 670.215 96.4661C669.39 94.9513 668.421 95.2087 667.573 96.3679C666.862 97.3263 666.833 98.5196 666.687 99.7172C666.434 101.801 666.138 104.002 663.679 104.791L670.075 168.512L670.275 168.547L671.086 164.299L673.043 165.296L675.619 163.175L675.889 165.867L678.856 167.63L680.025 163.83L682.546 164.281C682.546 164.281 684.431 164.476 685.106 165.044C685.782 165.611 688.279 168.866 688.299 167.585C688.327 166.303 688.745 162.736 688.745 162.736L691.498 163.94L693.233 167.333L695.025 163.563L697.172 163.334L699.513 165.108C699.513 165.108 702.662 162.529 702.615 162.056C702.567 161.583 704.905 163.252 704.905 163.252L706.189 165.196L708.503 166.705L710.662 165.034L713.107 166.214L717.267 167.534L719.004 164.782L718.766 162.411C718.766 162.411 722.849 164.533 723.307 164.484C723.764 164.435 724.762 163.527 724.762 163.527L728.623 163.439L730.599 166.11L733.025 162.491L735.808 165.553L735.426 161.748L736.85 160.479L738.925 162.654L741.359 162.24L744.087 164.669C744.087 164.669 745.005 166.165 745.236 165.347C745.466 164.521 746.099 163.174 746.019 162.381L745.784 160.034L749.312 161.228L749.455 162.654L750.622 164.991L751.618 162.585L753.226 164.712L755.218 164.499L755.976 162.759L757.495 162.435L759.97 163.992L762.711 165.075L764.644 165.832L766.695 164.649L767.809 163.413L769.562 163.866L771.531 166.537L775.093 168.076L778.008 167.764L780.19 169.45L782.823 167.889L784 167.286L784.942 168.942L786.863 171.141L793.149 170.47L794.704 172.061L796.083 171.913L796.724 170.566L799.61 171.536L805.122 173.992L806.848 172.69L810.387 170.871L813.448 170.544L814.12 169.508L816.133 171.058L819.532 172.452L823.206 172.059L824.255 173.226L827.162 172.916L829.842 174.872L832.088 177.191L831.644 172.761L833.31 172.421L835.584 173.457L839.727 174.618L841.436 176.192L843.493 173.576L846.268 173.441L848.212 172.748L851.298 172.58C851.298 172.58 852.71 172.753 852.949 172.088C853.194 171.414 854.03 170.531 854.03 170.531L856.034 171.912L856.145 173.025L858.443 174.375L859.454 172.032L860.332 170.012L861.855 171.29L862.782 172.794L864.117 173.769L866.109 173.556L865.998 172.45L868.256 173.326L869.171 173.229L869.935 171.552L870.909 170.485L873.355 171.664L875.236 170.346L876.837 172.41L879.14 172.164L878.806 168.839L881.057 169.724L881.968 171.068L883.064 172.708L883.689 171.2L885.212 172.478L885.101 171.373L886.767 171.033L888.508 172.928L889.733 172.797L889.479 170.266L892.035 172.551L893.51 173.357L893.208 170.345L894.715 171.463L896.146 170.347L897.164 171.201L898.409 172.833L902.246 172.423L902.97 170.419L903.769 170.657L906.894 170.963L907.706 169.759L908.68 168.692L910.06 171.588L911.435 169.838L912.509 171.327L914.044 171.163L915.658 168.748L916.593 167.207L916.72 168.472L918.859 168.244L919.793 166.703L921.36 166.859L923.841 166.91L924.831 166.003L926.223 164.413L927.858 163.761L929.043 163.156L930.804 163.77L931.87 165.097L934.307 166.27L935.794 165.633L935.874 166.426L937.182 168.691L940.1 169.974L940.979 171.005L942.514 170.841L942.466 170.361L945.429 170.53L946.749 168.308L948.498 167.158L950.025 170.039L951.095 169.925L950.952 168.499L951.656 167.784L952.972 167.004L953.93 168.82L954.136 170.879L955.707 169.586L957.393 167.81L958.121 167.409L958.216 168.362L960.443 168.926L960.57 170.191L963.027 169.929L964.665 170.871L966.94 171.907L967.704 170.231L967.544 168.645L969.008 170.893L969.278 173.584L971.477 172.386L972.669 174.979L972.749 175.772L974.002 174.359L973.938 173.726L975.946 173.673L977.095 174.344L978.237 171.826L977.998 169.447L978.749 169.204L980.07 170.027L981.684 170.656L983.676 170.443L983.803 171.709L985.843 171.968L986.452 170.308L987.958 171.427L989.055 173.066L988.865 171.168L990.654 170.499L991.943 171.001L994.857 170.689L994.36 173.463L995.048 172.588L996.352 173.25L997.342 175.387L998.941 172.812L998.686 170.28L999.466 168.756L1000.59 167.672L1001.57 169.649L1002.94 170.943L1005.05 170.402L1004.88 168.655L1003.92 166.839L1005.64 168.573L1007.13 169.54L1007.96 168.489L1009.71 167.499L1010.73 168.354L1010.59 166.928L1012.03 165.811L1014.85 166.149L1016.81 165.624L1017.8 164.716L1019.64 164.52L1021.8 164.451L1024.12 164.357L1025.11 163.458L1026.1 162.551L1027.64 163.981L1028.34 163.266L1030.97 164.75L1031.29 167.914L1032.37 164.763L1034.15 165.528L1035.84 163.906L1036.11 166.598L1038.07 167.514L1040.03 168.583L1041.74 167.121L1042.5 165.437L1044.11 166.067L1044.91 164.703L1045.56 161.913L1045.75 163.811L1049.41 164.861L1049.16 162.33L1050.46 161.389L1051.73 163.172L1053.56 161.374L1055.11 162.972L1055.35 165.343L1057.63 163.343L1059.04 163.508L1060.52 161.269C1060.52 161.269 1062.18 162.38 1062.1 163.181C1062.03 163.99 1062.45 166.512 1062.45 166.512L1064.18 162.319L1063.14 161.151L1065.09 160.466L1064.94 159.04L1066.55 159.67L1067.99 161.597L1069.69 161.577L1071.96 162.613C1071.96 162.613 1072.79 163.164 1073.05 162.651C1073.31 162.146 1073.73 160.182 1073.73 160.182L1075.11 161.637L1077.25 162.85L1078.74 162.205L1078.9 163.791L1080.28 163.644L1081.23 162.424L1082.67 161.307L1084.61 159.019L1084.82 161.078L1086.36 162.516L1088 166.503L1090 164.847L1091.6 163.875L1091.37 161.496L1094.1 162.483L1095.16 160.774L1094.78 156.969L1096.66 158.695L1097.85 156.641L1099.17 155.861L1098.8 152.217L1100.15 153.359C1100.15 153.359 1100.88 154.399 1101.27 153.718C1101.67 153.035 1101.91 150.767 1101.91 150.767L1101.7 148.709L1103.8 149.601L1104.52 149.047L1105.57 147.178L1104.55 144.721L1106.69 145.934L1108.29 148.005L1110.02 146.703L1111.64 145.89L1113.24 146.359L1114.12 144.338L1115.45 143.718L1114.93 138.495L1118.54 138.984L1119.62 140.552L1122.21 141.555L1123.6 141.568C1123.6 141.568 1125.18 141.877 1125.61 141.515C1126.04 141.146 1126.77 139.149 1126.77 139.149L1127.02 141.68L1129.55 142.212L1129.38 140.473L1131.07 141.887L1132.46 141.9L1133.94 141.264L1134.52 139.276L1136.12 139.753L1136.37 142.284L1137.91 142.12L1139.6 140.498C1139.6 140.498 1139.2 139.578 1139.48 139.232C1139.75 138.88 1141.59 137.241 1141.59 137.241L1141.52 136.528L1144.22 137.122L1145.74 138.401L1148.04 138.155L1149.69 139.097L1152.06 141.086L1153.77 142.822L1155.84 141.807L1156.05 143.866L1157.94 145.744L1159.31 143.995L1160.7 142.405L1161.42 140.248L1162.68 142.032L1164.36 141.852L1167.96 140.666L1169.29 141.488L1170.05 141.406L1171.31 143.19L1173.69 142.135L1174.7 144.432L1177.84 144.898L1179.22 144.75L1180.19 143.683L1181 140.876L1182.37 143.774L1183.28 145.117L1184.51 146.581L1184.69 148.327L1186.01 149.149L1187.31 148.208L1188.85 149.639L1190.49 152.184L1193.09 150.311L1192.92 148.565L1194.04 144.284L1194.5 148.882L1195.88 148.734L1197.41 150.012L1198.57 152.285L1200.49 151.439L1201.66 152.278L1203.22 150.824L1204.53 151.486L1204.7 153.232L1207.77 154.508L1208.96 155.498L1210.26 154.558L1210.34 155.351L1212.53 154.152L1213.93 157.209L1216.45 159.183L1217.06 159.118L1217.65 157.289L1216.53 155.328L1218.48 157.84L1220.19 157.82L1221.37 157.216L1223.46 156.506L1223 159.6L1223.96 161.417L1225.48 161.253L1226.33 161.964L1231.7 161.391L1232.88 162.382L1235.02 162.153L1234.74 159.309L1235.79 162.071L1236.75 163.896L1237.97 163.765L1238.47 160.991L1239.51 163.601L1240.67 164.432L1240.39 161.58L1242.24 162.985L1243.59 164.12L1244.51 164.022L1244.22 161.17L1245.99 164.827L1248.06 165.408L1248.97 163.707L1250.12 164.386L1251.1 163.318L1252 163.068L1253.42 164.835L1254.98 166.425L1256.22 165.013L1257.88 166.115L1257.96 166.908L1259.8 166.711L1261.43 169.103L1262.56 167.858L1263.55 166.951L1265.08 166.787L1264.95 165.521L1267.81 163.136L1268.01 165.194L1269.75 162.45L1270.78 161.854L1271.12 165.187L1272.14 166.194L1273.02 165.623L1274.18 164.86L1276.64 166.192L1278.13 165.716L1277.61 164.274L1276.64 161.553L1279.83 167.138C1279.83 167.138 1281.1 165.877 1281.05 165.405L1280.84 163.346L1282.04 164.497L1283.66 166.729L1284.99 164.506L1286.87 166.385L1288.02 168.497L1288.69 167.47L1290.33 166.81L1290.66 170.142L1291.58 170.044L1293.72 171.257L1293.64 170.464L1296.15 169.232L1297.52 167.482L1297.71 169.389L1299.47 171.435L1300.46 168.934L1301.34 169.957C1301.34 169.957 1302.46 171.918 1302.84 171.075C1303.22 170.241 1304.71 168.155 1304.71 168.155L1305.96 168.184L1306.97 169.039L1307.05 169.832C1307.05 169.832 1307.48 170.952 1307.91 170.719C1308.35 170.486 1310.09 169.184 1310.09 169.184L1311.38 169.686L1311.61 172.065L1312.48 172.928L1313.7 172.797L1315.5 173.731L1317 174.849L1317.18 176.587L1320.86 176.194L1321.87 177.049L1322.96 175.492L1323.1 176.918C1323.1 176.918 1323.84 178.118 1324.61 178.036L1326.9 177.791C1326.9 177.791 1329.23 180.902 1328.85 180.149C1328.46 179.389 1327.44 173.895 1327.44 173.895L1328.78 171.729L1329.97 169.78L1329.61 175.421L1329.82 177.479L1331.54 174.575L1332.34 174.813L1334.22 175.09L1335.34 173.854L1335.05 171.002L1337.22 172.527L1338.8 174.438L1339.44 173.091L1339.32 171.825L1341.28 172.895C1341.28 172.895 1341.83 172.196 1341.91 171.387C1341.98 170.577 1342.45 169.086 1342.45 169.086C1342.45 169.086 1344.45 170.476 1344.66 169.489L1344.87 168.512L1347.87 170.588L1350.63 170.293L1353.74 170.447L1356.18 170.024L1357.7 171.302L1360.12 170.72C1360.12 170.72 1359.56 172.861 1360.32 172.779C1361.09 172.697 1363.6 169.871 1363.6 169.871L1364.46 167.698L1364.27 165.8L1366.07 168.327L1367.3 168.196L1370.51 169.294C1370.51 169.294 1371.41 167.433 1371.34 166.801L1370.96 163.004L1373.58 165.922L1374.81 167.394L1376.46 165.291L1379.17 164.524L1381.39 163.485L1382.63 160.47L1382.46 158.732L1384 160.17L1384.76 158.486L1387.49 157.87L1388.43 156.49L1389.82 156.503L1390.03 158.562L1392.25 157.523L1391.69 159.663L1392.59 160.847L1394.06 160.05L1395.26 162.804L1395.97 160.647L1395.8 158.909L1397.31 160.027L1399.45 159.798L1400.21 158.114L1402 155.842L1401.82 154.104L1403.53 152.634L1403.86 155.967L1408.07 156.157L1407.86 154.099L1410.52 155.895L1412.14 155.082L1414.19 153.9L1416.06 154.016L1417.55 153.379L1418.77 151.646L1420.53 150.664L1421.49 149.437L1421.34 148.011L1422.77 149.786L1424.66 151.664L1425.78 152.022L1426.51 151.62L1427.81 150.68L1429.66 152.085L1430.57 151.988L1431.75 149.782L1433.24 150.748L1434.16 150.649L1434.97 149.437L1435.6 148.09L1437.58 149.159L1438.8 149.028C1438.8 149.028 1440.86 149.448 1440.64 148.832C1440.42 148.216 1439.58 146.062 1439.58 146.062L1441.68 148.404L1443.77 149.137L1443.63 147.711L1446.03 146.976L1447.74 147.117C1447.74 147.117 1448.87 149.077 1448.96 148.42C1449.05 147.771 1449.61 145.631 1449.61 145.631L1451.13 148.351L1453.58 148.089L1453.37 146.03L1455.35 148.862L1455.16 146.964L1456.81 147.905C1456.81 147.905 1458.31 147.421 1458.42 146.932C1458.52 146.444 1459.28 144.759 1459.28 144.759L1461.39 145.66L1461.21 143.913L1464.47 144.042L1466.1 141.634L1465.84 139.095L1467.39 142.136L1466.84 144.429L1469.13 142.589L1468.89 140.21L1470.79 143.691L1472.3 144.809L1474.29 142.994L1476.38 143.734L1476.52 145.16L1478.93 142.983L1480.86 143.732L1482.43 142.286L1483.42 142.981L1486.26 141.877L1485.43 144.523L1487.32 143.204L1488.72 144.82L1492.14 141.888L1493.48 142.87L1495.83 144.7L1497.84 143.044L1499.61 142.215L1501.57 143.285L1503.66 137.775L1502.95 143.137L1504.22 143.318L1505.21 142.411L1505.53 145.583L1507.48 143.455L1507.63 144.881L1510.06 146.061L1511.2 144.976L1512.05 144.246L1513.53 146.646L1514.91 144.896C1514.91 144.896 1517.08 144.987 1517.19 144.498C1517.29 144.002 1517.75 142.358 1517.75 142.358L1519.16 147.17L1520.35 148.16L1522.52 148.252L1525.87 146.129L1528.31 145.707L1530.14 146.952L1531.63 149.513L1533.65 148.018L1536.14 148.077L1537.03 149.26L1538.85 151.948L1539.5 151.741Z" fill="#121212"/>
</svg>
